<svg width="20" height="20" xmlns="http://www.w3.org/2000/svg">
    <g stroke="#494F60" fill="none" fill-rule="evenodd" stroke-linecap="round" stroke-linejoin="round">
        <path d="m11.185 3.28 1.248 3.842h4.04c1.093 0 1.547 1.398.663 2.041l-3.268 2.374 1.248 3.842c.338 1.04-.852 1.904-1.737 1.261l-3.267-2.374-3.268 2.374c-.885.643-2.075-.221-1.737-1.261l1.248-3.842-3.268-2.374c-.884-.643-.429-2.041.663-2.041h4.04L9.04 3.28c.336-1.04 1.807-1.04 2.145 0zM5.105 3.635l.715.835M2.5 12.711l1.029-.387M10.136 18.261l-.011-1.099M15.46 3.635l-.715.835M18.065 12.711l-1.028-.387"/>
    </g>
</svg>
