<svg width="20" height="20" xmlns="http://www.w3.org/2000/svg">
    <g fill="none" fill-rule="evenodd">
        <path d="M15.057 17.11A8.185 8.185 0 0 0 9.985 2.5a8.185 8.185 0 0 0-5.071 14.61" stroke="#494F60" stroke-linecap="round"/>
        <path d="M10.919 10.793a.934.934 0 1 1-1.868 0 .934.934 0 0 1 1.868 0M10.919 5.608a.934.934 0 1 1-1.868 0 .934.934 0 0 1 1.868 0M6.98 6.466a.934.934 0 1 1-1.32 1.32.934.934 0 0 1 1.32-1.32M4.8 9.859a.934.934 0 1 1 .001 1.868.934.934 0 0 1 0-1.868M5.66 13.799a.932.932 0 1 1 1.32 1.32.932.932 0 1 1-1.32-1.32M12.991 15.119a.932.932 0 0 1 0-1.32.934.934 0 1 1 0 1.32M15.17 11.726a.934.934 0 1 1 0-1.867.934.934 0 0 1 0 1.867" fill="#494F60"/>
        <path stroke="#494F60" stroke-linecap="round" d="m9.985 10.793 3.666-3.666"/>
    </g>
</svg>
