<svg width="18" height="28" xmlns="http://www.w3.org/2000/svg" xmlns:xlink="http://www.w3.org/1999/xlink">
    <defs>
        <linearGradient x1="33.98%" y1="0%" x2="67.946%" y2="100%" id="b">
            <stop stop-color="#53598B" offset="0%"/>
            <stop stop-color="#2A2A41" offset="100%"/>
        </linearGradient>
        <linearGradient x1="48.808%" y1="0%" x2="51.335%" y2="100%" id="c">
            <stop stop-color="#53598B" offset="0%"/>
            <stop stop-color="#2A2A41" offset="100%"/>
        </linearGradient>
        <path d="M6.91-4.91h14a2 2 0 0 1 2 2v23.82a2 2 0 0 1-2 2h-14a2 2 0 0 1-2-2V-2.91a2 2 0 0 1 2-2z" id="a"/>
    </defs>
    <g fill="none" fill-rule="evenodd">
        <g transform="rotate(90 9 9)">
            <mask id="d" fill="#fff">
                <use xlink:href="#a"/>
            </mask>
            <use fill="url(#b)" transform="rotate(-90 13.91 9)" xlink:href="#a"/>
            <path fill-opacity=".5" fill="url(#c)" style="mix-blend-mode:multiply" mask="url(#d)" transform="rotate(-90 13.91 2.455)" d="M11.455-11.455h4.909v27.819h-4.91z"/>
        </g>
        <rect fill="#FFF" x="8.836" y="3.436" width="2.88" height="4.091" rx="1"/>
    </g>
</svg>
