<svg width="24" height="24" xmlns="http://www.w3.org/2000/svg" xmlns:xlink="http://www.w3.org/1999/xlink">
    <defs>
        <path id="a" d="M0 0h4.375v2.5H0z"/>
    </defs>
    <g fill="none" fill-rule="evenodd">
        <circle fill="#726155" cx="12" cy="12" r="12"/>
        <path d="M11.125 12.14c-.05.001-.097.008-.147.008-1.347 0-2.472-.592-2.84-1.398a1.347 1.347 0 0 0-.138.56c0 1.025 1.205 1.857 2.734 1.94.067-.395.2-.769.391-1.11M10.922 14.018l.001-.016c-1.321-.08-2.401-.634-2.772-1.377a1.25 1.25 0 0 0-.151.557c0 1.053 1.39 1.904 3.125 1.943a3.135 3.135 0 0 1-.203-1.107" fill="#FFF"/>
        <g transform="translate(8 14.5)">
            <mask id="b" fill="#fff">
                <use xlink:href="#a"/>
            </mask>
            <path d="M3.455 1.381c-.052.002-.102.008-.154.008C1.808 1.389.56.801.153 0A1.22 1.22 0 0 0 0 .556C0 1.629 1.477 2.5 3.3 2.5a5.32 5.32 0 0 0 1.075-.114 3.754 3.754 0 0 1-.92-1.005" fill="#FFF" mask="url(#b)"/>
        </g>
        <path d="M11.125 7C9.399 7 8 7.98 8 9.188c0 1.208 1.399 2.187 3.125 2.187s3.125-.98 3.125-2.188C14.25 7.98 12.851 7 11.125 7" fill="#FFF"/>
        <path d="M14.875 10.75a3.125 3.125 0 1 0 0 6.25 3.125 3.125 0 0 0 0-6.25" fill="#FFF"/>
    </g>
</svg>
