<svg width="20" height="20" xmlns="http://www.w3.org/2000/svg">
    <g fill="none" fill-rule="evenodd">
        <path d="m4.125 13.695-1.26 3.396a.2.2 0 0 0 .265.255c.978-.413 3.334-1.409 3.761-1.588a.169.169 0 0 1 .139.001 8.47 8.47 0 0 0 3.214.624c4.276 0 7.743-3.107 7.743-6.941 0-3.834-3.467-6.942-7.743-6.942C5.967 2.5 2.5 5.608 2.5 9.442c0 1.603.606 3.078 1.624 4.253M10.244 8.606v3.676" stroke="#FF5829" stroke-linecap="round" stroke-linejoin="round"/>
        <path d="M10.74 6.52a.496.496 0 1 1-.992 0 .496.496 0 0 1 .992 0" fill="#FF5829"/>
    </g>
</svg>
