<svg width="156" height="92" xmlns="http://www.w3.org/2000/svg" xmlns:xlink="http://www.w3.org/1999/xlink">
    <defs>
        <path id="a" d="M0 0h156v92H0z"/>
        <path id="c" d="M0 60h85V0H0z"/>
    </defs>
    <g fill="none" fill-rule="evenodd">
        <g>
            <mask id="b" fill="#fff">
                <use xlink:href="#a"/>
            </mask>
            <path d="M181.367 120.404c-5.489 15.783-16.88 32.8-33.128 37.682-24.551 7.382-27.257 28.07-71.41 25.62-6.885-.382-13.256-1.468-19.118-3.15a73.576 73.576 0 0 1-9.008-3.22C22.796 166.13 9.071 141.987 7.666 116.882 5.813 83.863 27.7 68.398 41.936 59.36c14.236-9.038 31.112-44.52 74.528-42.466 6.62.316 13.232 1.339 19.65 3.225 14.65 4.299 29.6 13.598 38.38 27.035a63.323 63.323 0 0 1 1.891 3.094c11.78 20.574 12.467 48.641 4.982 70.157" fill="#E1E6FF" mask="url(#b)" transform="rotate(15 96.907 100.357)"/>
        </g>
        <g transform="translate(41 22)">
            <path d="M2.865 39.217v.566c0 .044.02.086.053.12a.314.314 0 0 0 .145.082.522.522 0 0 0 .11.015h12.754c.155 0 .284-.08.305-.184.002-.008.004-.015.004-.022v-.587c0-.008-.002-.015-.004-.022-.021-.104-.15-.185-.305-.185H3.174a.493.493 0 0 0-.111.015.314.314 0 0 0-.145.081.176.176 0 0 0-.053.121" fill="#FFB93E"/>
            <path d="M8.596 40h7.344c.136 0 .251-.069.285-.161a.085.085 0 0 0 .007-.023c.001-.008.004-.015.004-.022v-.587c0-.008-.003-.015-.004-.022a.081.081 0 0 0-.007-.024c-.034-.092-.15-.161-.285-.161H9.497c-.102.294-.343.701-.901 1" fill="#FFA412"/>
            <mask id="d" fill="#fff">
                <use xlink:href="#c"/>
            </mask>
            <path fill="#FFA412" mask="url(#d)" d="M4.238 40h.12v-1h-.12zM5.193 40h.12v-1h-.12z"/>
            <path fill="#FFA412" mask="url(#d)" d="M5.193 40h.12v-1h-.12zM6.148 40h.12v-1h-.12zM8.058 40h.12v-1h-.12zM9.968 40h.12v-1h-.12zM10.923 40h.12v-1h-.12zM11.879 40h.119v-1h-.12zM4.238 40h.12v-1h-.12z"/>
            <path fill="#FFA412" mask="url(#d)" d="M4.238 40h.12v-1h-.12zM3.283 40h.12v-1h-.12z"/>
            <path d="M3.283 39.004v.993l.045.003h.074v-1h-.074c-.015 0-.03.002-.045.004" fill="#FFA412" mask="url(#d)"/>
            <path d="M3.283 39.084v.832c.029.038.07.067.12.084v-1a.253.253 0 0 0-.12.084" fill="#FFA412" mask="url(#d)"/>
            <path d="M4.775 36.218v.565c0 .044.02.086.052.121l.03.025a.352.352 0 0 0 .173.067.332.332 0 0 0 .054.004h12.754c.153 0 .281-.08.305-.185l.002-.022a.037.037 0 0 0 .001-.01v-.565l-.001-.011-.002-.022c-.024-.104-.152-.185-.305-.185H5.084l-.024.001h-.01c-.005 0-.009 0-.012.002H5.03a.362.362 0 0 0-.088.022l-.021.008a.05.05 0 0 1-.01.005c-.004.002-.009.004-.01.006a.233.233 0 0 0-.039.023l-.01.009a.013.013 0 0 0-.006.005l-.004.002-.003.002-.012.012a.177.177 0 0 0-.052.121" fill="#FFB93E" mask="url(#d)"/>
            <path d="M11.46 37h7.345c.136 0 .25-.069.285-.161.004-.008.005-.017.007-.024l.003-.02.001-.012v-.566l-.001-.01c0-.008-.001-.015-.003-.022-.002-.008-.003-.016-.007-.024-.035-.092-.15-.161-.285-.161h-6.443a.148.148 0 0 1-.008.024c-.108.293-.35.686-.893.976M6.148 37h.12v-1h-.12z" fill="#FFA412" mask="url(#d)"/>
            <path fill="#FFA412" mask="url(#d)" d="M6.148 37h.12v-1h-.12zM8.058 37h.12v-1h-.12zM9.013 37h.12v-1h-.12zM9.968 37h.12v-1h-.12zM10.923 37h.12v-1h-.12zM11.879 37h.119v-1h-.12zM13.789 37h.119v-1h-.12zM5.193 37h.12v-1h-.12z"/>
            <path fill="#FFA412" mask="url(#d)" d="M5.193 37h.12v-1h-.12z"/>
            <path fill="#FFA412" mask="url(#d)" d="M5.193 37h.12v-1h-.12zM4.238 36.004v.993c.014.002.03.003.045.003h.074v-1h-.074a.336.336 0 0 0-.045.004"/>
            <path d="M4.238 36.084v.832c.029.038.07.067.12.084v-1a.253.253 0 0 0-.12.084" fill="#FFA412" mask="url(#d)"/>
            <path d="M3.82 35.217v.566c0 .044.02.086.053.122a.321.321 0 0 0 .145.08.522.522 0 0 0 .11.015h12.754c.051 0 .1-.009.143-.024.084-.031.146-.09.163-.159 0-.004 0-.01.002-.013l.001-.01v-.587a1.002 1.002 0 0 0-.003-.022c-.024-.104-.152-.185-.306-.185H4.13a.331.331 0 0 0-.055.004.36.36 0 0 0-.056.01.314.314 0 0 0-.145.082.176.176 0 0 0-.053.121" fill="#FFB93E" mask="url(#d)"/>
            <path d="M9.55 36h7.345c.05 0 .096-.009.136-.024.082-.032.141-.09.156-.159.002-.004.002-.01.003-.014l.001-.009v-.587l-.004-.022a.085.085 0 0 0-.007-.023c-.034-.093-.15-.162-.285-.162h-6.443c-.099.286-.329.68-.855.976L9.55 36M5.193 36h.12v-1h-.12z" fill="#FFA412" mask="url(#d)"/>
            <path fill="#FFA412" mask="url(#d)" d="M5.193 36h.12v-1h-.12zM6.148 36h.12v-1h-.12zM8.058 36h.12v-1h-.12zM9.013 36h.12v-1h-.12zM9.968 36h.12v-1h-.12zM11.879 36h.119v-1h-.12zM12.834 36h.119v-1h-.12z"/>
            <path fill="#FFA412" mask="url(#d)" d="M5.193 36h.12v-1h-.12zM4.238 36h.12v-1h-.12z"/>
            <path fill="#FFA412" mask="url(#d)" d="M4.238 36h.12v-1h-.12z"/>
            <path d="M4.238 35.004v.993l.045.003h.074v-1h-.074c-.015 0-.03.002-.045.004M3.283 35.084v.832c.03.038.07.067.12.084v-1a.257.257 0 0 0-.12.084" fill="#FFA412" mask="url(#d)"/>
            <path d="M3.82 34.218v.565c0 .044.02.086.053.121l.014.013c.025.022.055.04.088.054l.043.014a.36.36 0 0 0 .056.011l.027.003.028.001h12.753c.155 0 .284-.08.307-.185l.002-.022v-.586c-.008-.106-.125-.192-.272-.205a.444.444 0 0 0-.037-.002H4.13l-.028.001c-.01 0-.017.002-.027.003a.523.523 0 0 0-.056.012.306.306 0 0 0-.145.081.172.172 0 0 0-.053.121" fill="#FFB93E" mask="url(#d)"/>
            <path fill="#FFA412" mask="url(#d)" d="M5.193 35h.12v-1h-.12z"/>
            <path fill="#FFA412" mask="url(#d)" d="M5.193 35h.12v-1h-.12zM6.148 35h.12v-1h-.12zM8.058 35h.12v-1h-.12zM9.013 35h.12v-1h-.12zM9.968 35h.12v-1h-.12zM10.923 35h.12v-1h-.12zM12.834 35h.119v-1h-.12zM4.238 35h.12v-1h-.12z"/>
            <path fill="#FFA412" mask="url(#d)" d="M4.238 35h.12v-1h-.12z"/>
            <path fill="#FFA412" mask="url(#d)" d="M4.238 35h.12v-1h-.12zM3.283 34.003v.993c.014.003.03.004.045.004h.074v-1h-.074a.338.338 0 0 0-.045.003"/>
            <path d="M3.283 34.084v.832c.029.038.07.067.12.084v-1a.253.253 0 0 0-.12.084" fill="#FFA412" mask="url(#d)"/>
            <path d="M4.775 33.218v.565c0 .044.02.086.053.121a.314.314 0 0 0 .145.081.36.36 0 0 0 .057.011l.017.002h.002a.038.038 0 0 0 .01.001l.009.001h12.77c.164 0 .3-.092.308-.207v-.586l-.001-.01c-.012-.091-.106-.167-.231-.19a.381.381 0 0 0-.076-.008l-12.754.001-.028.001h-.013a.523.523 0 0 0-.07.014.306.306 0 0 0-.145.082.175.175 0 0 0-.053.121" fill="#FFB93E" mask="url(#d)"/>
            <path fill="#FFA412" mask="url(#d)" d="M6.148 34h.12v-1h-.12z"/>
            <path fill="#FFA412" mask="url(#d)" d="M6.148 34h.12v-1h-.12zM8.058 34h.12v-1h-.12zM9.013 34h.12v-1h-.12zM9.968 34h.12v-1h-.12zM10.923 34h.12v-1h-.12zM11.879 34h.119v-1h-.12zM13.789 34h.119v-1h-.12zM5.193 34h.12v-1h-.12z"/>
            <path fill="#FFA412" mask="url(#d)" d="M5.193 34h.12v-1h-.12z"/>
            <path fill="#FFA412" mask="url(#d)" d="M5.193 34h.12v-1h-.12zM4.238 33.004v.993l.045.003h.074v-1h-.074c-.015 0-.03.002-.045.004"/>
            <path d="M4.238 33.084v.832c.029.037.07.066.12.084v-1a.253.253 0 0 0-.12.084" fill="#FFA412" mask="url(#d)"/>
            <path d="M4.775 32.218v.565c0 .044.02.086.052.121l.03.025a.352.352 0 0 0 .16.065h.001l.012.002a.332.332 0 0 0 .054.004h12.754a.533.533 0 0 0 .039-.002c.006 0 .01 0 .016-.002.13-.016.232-.091.25-.183l.002-.02a.037.037 0 0 0 .001-.01v-.565l-.001-.011-.002-.022c-.024-.104-.152-.185-.305-.185H5.084l-.024.001h-.011l-.011.002H5.03a.523.523 0 0 0-.057.013.305.305 0 0 0-.134.07l-.012.011a.177.177 0 0 0-.052.121" fill="#FFB93E" mask="url(#d)"/>
            <path d="M11.46 33h7.362l.018-.002c.133-.013.24-.09.257-.185.002-.007.003-.013.003-.02l.001-.011v-.564l-.001-.011a.125.125 0 0 0-.003-.022c-.002-.008-.003-.015-.007-.023-.035-.092-.15-.162-.285-.162h-6.443a.202.202 0 0 1-.008.025c-.107.29-.346.678-.88.967l-.013.008M6.148 33h.12v-1h-.12z" fill="#FFA412" mask="url(#d)"/>
            <path fill="#FFA412" mask="url(#d)" d="M6.148 33h.12v-1h-.12zM8.058 33h.12v-1h-.12zM9.013 33h.12v-1h-.12zM9.968 33h.12v-1h-.12zM10.923 33h.12v-1h-.12zM11.879 33h.119v-1h-.12zM13.789 33h.119v-1h-.12zM5.193 33h.12v-1h-.12z"/>
            <path fill="#FFA412" mask="url(#d)" d="M5.193 33h.12v-1h-.12z"/>
            <path fill="#FFA412" mask="url(#d)" d="M5.193 33h.12v-1h-.12zM4.238 32.004v.993c.014.002.03.003.045.003h.074v-1h-.074a.336.336 0 0 0-.045.004"/>
            <path d="M4.238 32.084v.833a.25.25 0 0 0 .12.083v-1a.253.253 0 0 0-.12.084" fill="#FFA412" mask="url(#d)"/>
            <path d="M5.73 30.218v.565c0 .044.02.086.053.121a.314.314 0 0 0 .145.081.36.36 0 0 0 .057.011.332.332 0 0 0 .054.004h12.754c.052 0 .1-.009.142-.025.085-.03.146-.09.163-.157 0-.005 0-.01.002-.015l.001-.01v-.586l-.003-.022c-.022-.104-.15-.185-.305-.185H6.039a.49.49 0 0 0-.111.016.306.306 0 0 0-.145.081.175.175 0 0 0-.053.121" fill="#FFB93E" mask="url(#d)"/>
            <path d="M12.416 31h7.345a.363.363 0 0 0 .135-.025c.082-.031.142-.09.155-.157l.003-.015v-.01c.002-.003.002-.007.002-.011v-.564l-.001-.011a.125.125 0 0 0-.003-.022c-.002-.008-.003-.015-.007-.023-.034-.092-.15-.162-.284-.162h-6.443c-.1.287-.33.679-.858.975l-.044.025M8.058 31h.12v-1h-.12z" fill="#FFA412" mask="url(#d)"/>
            <path fill="#FFA412" mask="url(#d)" d="M8.058 31h.12v-1h-.12zM9.013 31h.12v-1h-.12zM9.968 31h.12v-1h-.12zM10.923 31h.12v-1h-.12zM11.879 31h.119v-1h-.12zM12.834 31h.119v-1h-.12zM14.744 31h.12v-1h-.12zM6.148 31h.12v-1h-.12z"/>
            <path fill="#FFA412" mask="url(#d)" d="M6.148 31h.12v-1h-.12z"/>
            <path fill="#FFA412" mask="url(#d)" d="M6.148 31h.12v-1h-.12zM5.193 30.004v.992c.015.002.03.004.045.004h.074v-1h-.074c-.015 0-.03.002-.045.004"/>
            <path d="M5.193 30.084v.833c.029.037.07.066.12.083v-1a.253.253 0 0 0-.12.084" fill="#FFA412" mask="url(#d)"/>
            <path d="M4.775 29.217v.566c0 .044.02.086.052.12l.001.002.014.012a.308.308 0 0 0 .109.062l.022.007a.493.493 0 0 0 .11.014h12.755c.154 0 .283-.08.305-.184l.003-.022v-.587c-.008-.106-.125-.192-.273-.205C17.862 29 17.85 29 17.838 29H5.084a.363.363 0 0 0-.11.016.314.314 0 0 0-.132.067l-.014.013a.18.18 0 0 0-.053.121" fill="#FFB93E" mask="url(#d)"/>
            <path d="M11.46 30h7.347c.135 0 .25-.069.284-.162l.008-.022.002-.022v-.587c-.006-.106-.118-.193-.26-.205-.012-.002-.023-.002-.034-.002h-6.444v.002c-.103.294-.345.7-.902.998M6.148 30h.12v-1h-.12zM8.058 30h.12v-1h-.12z" fill="#FFA412" mask="url(#d)"/>
            <path fill="#FFA412" mask="url(#d)" d="M8.058 30h.12v-1h-.12zM9.013 30h.12v-1h-.12zM9.968 30h.12v-1h-.12zM11.879 30h.119v-1h-.12zM12.834 30h.119v-1h-.12zM13.789 30h.119v-1h-.12zM6.148 30h.12v-1h-.12zM5.193 30h.12v-1h-.12z"/>
            <path fill="#FFA412" mask="url(#d)" d="M5.193 30h.12v-1h-.12z"/>
            <path d="M5.193 29.004v.993l.045.003h.074v-1h-.074c-.015 0-.03.002-.045.004" fill="#FFA412" mask="url(#d)"/>
            <path d="M5.193 29.084v.833c.029.037.07.066.12.083v-1a.253.253 0 0 0-.12.084" fill="#FFA412" mask="url(#d)"/>
            <path d="M4.775 28.217v.566c0 .044.02.086.053.12a.314.314 0 0 0 .145.082.36.36 0 0 0 .057.011l.017.002h.002l.013.002h12.776a.35.35 0 0 0 .262-.104.18.18 0 0 0 .046-.103v-.587c-.007-.092-.097-.17-.22-.196a.376.376 0 0 0-.088-.01H5.068l-.008.001c-.01 0-.02 0-.03.002a.522.522 0 0 0-.057.012l-.027.007a.348.348 0 0 0-.089.048v.002c-.002 0-.003 0-.004.002a.16.16 0 0 0-.025.022.176.176 0 0 0-.053.121" fill="#FFB93E" mask="url(#d)"/>
            <path d="M11.46 29h7.344c.103 0 .195-.04.247-.099a.175.175 0 0 0 .049-.108l.001-.011v-.565l-.001-.011c-.006-.1-.106-.182-.236-.202a.388.388 0 0 0-.06-.004h-6.442a.166.166 0 0 1-.008.022c-.107.293-.348.686-.89.976L11.46 29M6.148 29h.12v-1h-.12z" fill="#FFA412" mask="url(#d)"/>
            <path fill="#FFA412" mask="url(#d)" d="M6.148 29h.12v-1h-.12zM8.058 29h.12v-1h-.12zM9.013 29h.12v-1h-.12zM9.968 29h.12v-1h-.12zM10.923 29h.12v-1h-.12zM11.879 29h.119v-1h-.12zM13.789 29h.119v-1h-.12zM5.193 29h.12v-1h-.12z"/>
            <path fill="#FFA412" mask="url(#d)" d="M5.193 29h.12v-1h-.12z"/>
            <path fill="#FFA412" mask="url(#d)" d="M5.193 29h.12v-1h-.12zM4.238 28.003v.993c.015.002.03.004.045.004h.074v-1h-.074a.348.348 0 0 0-.045.003"/>
            <path d="M4.238 28.084v.832c.029.038.07.067.12.084v-1a.253.253 0 0 0-.12.084" fill="#FFA412" mask="url(#d)"/>
            <path d="M6.685 27.218v.565c0 .044.02.086.054.121a.314.314 0 0 0 .144.081.36.36 0 0 0 .057.011.332.332 0 0 0 .054.004h12.754a.41.41 0 0 0 .137-.023c.094-.033.16-.098.17-.174a.03.03 0 0 0 .001-.01v-.586c-.008-.106-.125-.192-.271-.205a.444.444 0 0 0-.037-.002H6.994a.49.49 0 0 0-.111.016.306.306 0 0 0-.144.081.175.175 0 0 0-.054.121" fill="#FFB93E" mask="url(#d)"/>
            <path d="M13.37 28h7.346a.384.384 0 0 0 .131-.022c.09-.034.153-.1.163-.175v-.009l.001-.011v-.566l-.001-.01c-.006-.106-.118-.193-.26-.205-.01-.002-.023-.002-.034-.002h-6.443v.002c-.101.286-.332.68-.86.976-.014.006-.027.014-.042.022M9.013 28h.12v-1h-.12z" fill="#FFA412" mask="url(#d)"/>
            <path fill="#FFA412" mask="url(#d)" d="M9.013 28h.12v-1h-.12zM9.968 28h.12v-1h-.12zM10.923 28h.12v-1h-.12zM11.879 28h.119v-1h-.12zM12.834 28h.119v-1h-.12zM14.744 28h.12v-1h-.12zM15.699 28h.12v-1h-.12zM8.058 28h.12v-1h-.12z"/>
            <path fill="#FFA412" mask="url(#d)" d="M8.058 28h.12v-1h-.12z"/>
            <path fill="#FFA412" mask="url(#d)" d="M8.058 28h.12v-1h-.12zM6.148 27.004v.993c.014.002.03.003.045.003h.075v-1h-.075a.336.336 0 0 0-.045.004"/>
            <path d="M6.148 27.084v.832c.029.038.07.067.12.084v-1a.253.253 0 0 0-.12.084" fill="#FFA412" mask="url(#d)"/>
            <path d="M4.775 26.217v.566c0 .044.02.086.053.12a.314.314 0 0 0 .145.082.36.36 0 0 0 .057.011l.017.002.01.001.01.001H17.839c.164 0 .3-.092.308-.207v-.587c-.008-.114-.144-.206-.308-.206H5.084a.493.493 0 0 0-.111.015.314.314 0 0 0-.145.081.176.176 0 0 0-.053.121" fill="#FFB93E" mask="url(#d)"/>
            <path d="M12.416 27h7.343c.158 0 .288-.092.296-.207l.001-.011v-.565l-.001-.011c-.008-.115-.138-.206-.296-.206h-6.441c-.104.293-.342.7-.9.998l-.002.002zM6.148 27h.12v-1h-.12zM8.058 27h.12v-1h-.12z" fill="#FFA412" mask="url(#d)"/>
            <path fill="#FFA412" mask="url(#d)" d="M8.058 27h.12v-1h-.12zM9.013 27h.12v-1h-.12zM9.968 27h.12v-1h-.12zM11.879 27h.119v-1h-.12zM12.834 27h.119v-1h-.12zM13.789 27h.119v-1h-.12zM6.148 27h.12v-1h-.12z"/>
            <path fill="#FFA412" mask="url(#d)" d="M6.148 27h.12v-1h-.12zM5.193 27h.12v-1h-.12z"/>
            <path d="M5.193 26.003v.993c.015.002.03.004.045.004h.074v-1h-.074a.348.348 0 0 0-.045.003" fill="#FFA412" mask="url(#d)"/>
            <path d="M5.193 26.084v.832a.26.26 0 0 0 .12.084v-1a.253.253 0 0 0-.12.084" fill="#FFA412" mask="url(#d)"/>
            <path d="M15.28 43.217v.566c0 .044.02.086.054.12a.314.314 0 0 0 .145.082.36.36 0 0 0 .056.011.331.331 0 0 0 .054.004h12.754c.155 0 .283-.08.305-.185l.004-.022v-.587l-.004-.022c-.022-.103-.15-.184-.305-.184H15.59a.493.493 0 0 0-.11.015.314.314 0 0 0-.145.081.176.176 0 0 0-.053.121" fill="#FFB93E" mask="url(#d)"/>
            <path d="M21.966 44h7.345c.136 0 .251-.069.285-.161a.085.085 0 0 0 .007-.023.938.938 0 0 1 .004-.022v-.587a.938.938 0 0 0-.004-.022.081.081 0 0 0-.007-.024c-.034-.092-.15-.161-.285-.161h-6.443c-.102.294-.343.702-.902 1M16.654 44h.12v-1h-.12zM17.609 44h.12v-1h-.12z" fill="#FFA412" mask="url(#d)"/>
            <path fill="#FFA412" mask="url(#d)" d="M17.609 44h.12v-1h-.12zM18.564 44h.12v-1h-.12zM19.519 44h.12v-1h-.12zM22.384 44h.12v-1h-.12zM23.34 44h.119v-1h-.12zM24.294 44h.12v-1h-.12zM16.654 44h.12v-1h-.12z"/>
            <path fill="#FFA412" mask="url(#d)" d="M16.654 44h.12v-1h-.12zM15.699 44h.12v-1h-.12z"/>
            <path d="M15.699 43.003v.993c.015.002.03.004.045.004h.074v-1h-.074a.348.348 0 0 0-.045.003" fill="#FFA412" mask="url(#d)"/>
            <path d="M15.699 43.083v.833c.03.037.07.067.12.084v-1a.249.249 0 0 0-.12.083" fill="#FFA412" mask="url(#d)"/>
            <path d="M17.191 41.218v.565c0 .044.02.086.052.121l.029.025a.352.352 0 0 0 .173.067.323.323 0 0 0 .055.004h12.753c.154 0 .282-.08.305-.185a.123.123 0 0 0 .003-.022v-.586l-.003-.022c-.023-.104-.151-.185-.305-.185H17.5l-.025.001H17.465l-.012.002h-.008a.523.523 0 0 0-.056.013c-.01.002-.022.005-.032.01l-.02.007-.01.006a.233.233 0 0 0-.049.028l-.01.009a.013.013 0 0 0-.006.005l-.004.002-.003.002-.012.012a.18.18 0 0 0-.052.121" fill="#FFB93E" mask="url(#d)"/>
            <path d="M22.921 42h7.345c.136 0 .25-.069.285-.162l.007-.023a.125.125 0 0 0 .003-.022v-.586a.125.125 0 0 0-.003-.022l-.007-.023c-.035-.092-.15-.162-.285-.162h-6.443a.202.202 0 0 1-.009.025c-.108.292-.349.685-.893.975M18.564 42h.12v-1h-.12z" fill="#FFA412" mask="url(#d)"/>
            <path fill="#FFA412" mask="url(#d)" d="M18.564 42h.12v-1h-.12zM19.519 42h.12v-1h-.12zM20.474 42h.12v-1h-.12zM22.384 42h.12v-1h-.12zM23.34 42h.119v-1h-.12zM24.294 42h.12v-1h-.12zM26.204 42h.12v-1h-.12zM17.609 42h.12v-1h-.12z"/>
            <path fill="#FFA412" mask="url(#d)" d="M17.609 42h.12v-1h-.12z"/>
            <path fill="#FFA412" mask="url(#d)" d="M17.609 42h.12v-1h-.12zM16.654 41.004v.992c.014.002.03.004.045.004h.074v-1H16.7a.336.336 0 0 0-.045.004"/>
            <path d="M16.654 41.084v.832c.028.037.07.066.12.084v-1a.253.253 0 0 0-.12.084" fill="#FFA412" mask="url(#d)"/>
            <path d="M16.236 40.217v.566c0 .044.02.086.053.12a.314.314 0 0 0 .145.082.36.36 0 0 0 .056.011.331.331 0 0 0 .055.004h12.753c.051 0 .1-.01.142-.025.085-.03.147-.09.163-.158.001-.004.001-.01.003-.014v-.597a.122.122 0 0 0-.003-.02c-.023-.105-.151-.186-.305-.186H16.545a.493.493 0 0 0-.111.015.314.314 0 0 0-.145.081.176.176 0 0 0-.053.121" fill="#FFB93E" mask="url(#d)"/>
            <path d="M21.966 41h7.345c.049 0 .096-.01.136-.025.081-.031.141-.09.156-.158l.002-.014v-.01c.002-.004.002-.008.002-.01v-.566c0-.003 0-.007-.002-.011a.104.104 0 0 0-.002-.02l-.007-.024c-.034-.093-.15-.162-.285-.162h-6.443c-.1.285-.33.679-.857.975l-.045.025M17.609 41h.12v-1h-.12zM18.564 41h.12v-1h-.12z" fill="#FFA412" mask="url(#d)"/>
            <path fill="#FFA412" mask="url(#d)" d="M18.564 41h.12v-1h-.12zM19.519 41h.12v-1h-.12zM20.474 41h.12v-1h-.12zM22.384 41h.12v-1h-.12zM24.294 41h.12v-1h-.12zM25.25 41h.119v-1h-.12zM17.609 41h.12v-1h-.12zM16.654 41h.12v-1h-.12z"/>
            <path fill="#FFA412" mask="url(#d)" d="M16.654 41h.12v-1h-.12z"/>
            <path d="M16.654 40.004v.992c.014.002.03.004.045.004h.074v-1H16.7a.336.336 0 0 0-.045.004" fill="#FFA412" mask="url(#d)"/>
            <path d="M16.654 40.084v.832c.03.037.07.067.12.084v-1a.257.257 0 0 0-.12.084" fill="#FFA412" mask="url(#d)"/>
            <path d="M16.236 39.218v.565c0 .044.02.086.053.121l.014.014a.31.31 0 0 0 .13.067.36.36 0 0 0 .057.011l.027.003.028.001h12.753c.155 0 .283-.08.306-.185.002-.007.003-.014.003-.022v-.586c-.008-.106-.125-.192-.272-.205a.444.444 0 0 0-.037-.002H16.545l-.028.001c-.01 0-.018.002-.027.003a.523.523 0 0 0-.056.012.306.306 0 0 0-.145.081.174.174 0 0 0-.053.121" fill="#FFB93E" mask="url(#d)"/>
            <path d="M21.966 40h7.345c.136 0 .25-.069.285-.162a.075.075 0 0 0 .007-.023l.004-.022v-.586c-.008-.106-.12-.192-.261-.205L29.31 39h-6.443v.002c-.103.294-.344.7-.902.998M17.609 40h.12v-1h-.12z" fill="#FFA412" mask="url(#d)"/>
            <path fill="#FFA412" mask="url(#d)" d="M17.609 40h.12v-1h-.12zM18.564 40h.12v-1h-.12zM19.519 40h.12v-1h-.12zM20.474 40h.12v-1h-.12zM22.384 40h.12v-1h-.12zM23.34 40h.119v-1h-.12zM25.25 40h.119v-1h-.12zM16.654 40h.12v-1h-.12z"/>
            <path fill="#FFA412" mask="url(#d)" d="M16.654 40h.12v-1h-.12z"/>
            <path fill="#FFA412" mask="url(#d)" d="M16.654 40h.12v-1h-.12zM15.699 39.004v.993c.014.002.03.003.045.003h.074v-1h-.074a.336.336 0 0 0-.045.004"/>
            <path d="M15.699 39.084v.833c.028.037.07.066.12.083v-1a.253.253 0 0 0-.12.084" fill="#FFA412" mask="url(#d)"/>
            <path d="M17.191 38.217v.566c0 .044.02.086.052.12a.324.324 0 0 0 .202.093l.018.002h.002l.01.001.008.001h12.77c.164 0 .3-.092.309-.207v-.587l-.001-.009c-.012-.092-.107-.168-.231-.19l-.01-.002a.504.504 0 0 0-.067-.005H17.5l-.028.001h-.012l-.015.002a.522.522 0 0 0-.056.012.315.315 0 0 0-.146.081.18.18 0 0 0-.052.121" fill="#FFB93E" mask="url(#d)"/>
            <path d="M22.921 39h7.344c.159 0 .288-.092.296-.207v-.587c0-.003 0-.006-.002-.009-.01-.094-.105-.172-.23-.192l-.01-.002a.476.476 0 0 0-.054-.003h-6.442l-.002.007c-.105.293-.344.695-.897.991L22.92 39M18.564 39h.12v-1h-.12z" fill="#FFA412" mask="url(#d)"/>
            <path fill="#FFA412" mask="url(#d)" d="M18.564 39h.12v-1h-.12zM19.519 39h.12v-1h-.12zM20.474 39h.12v-1h-.12zM22.384 39h.12v-1h-.12zM23.34 39h.119v-1h-.12zM24.294 39h.12v-1h-.12zM26.204 39h.12v-1h-.12zM17.609 39h.12v-1h-.12z"/>
            <path fill="#FFA412" mask="url(#d)" d="M17.609 39h.12v-1h-.12z"/>
            <path fill="#FFA412" mask="url(#d)" d="M17.609 39h.12v-1h-.12zM16.654 38.003v.993c.015.002.03.004.045.004h.074v-1H16.7a.348.348 0 0 0-.045.003"/>
            <path d="M16.654 38.083v.833a.26.26 0 0 0 .12.084v-1a.244.244 0 0 0-.12.083" fill="#FFA412" mask="url(#d)"/>
            <path d="M17.191 36.217v.566c0 .044.02.086.052.12l.029.027a.333.333 0 0 0 .117.055l.042.01h.002l.012.001A.322.322 0 0 0 17.5 37h12.753c.013 0 .027 0 .04-.002.005 0 .01 0 .016-.002.13-.016.232-.091.25-.183l.002-.02v-.587a.122.122 0 0 0-.003-.02c-.023-.105-.151-.186-.305-.186H17.475l-.003.001h-.019l-.008.002a.522.522 0 0 0-.056.012.322.322 0 0 0-.134.07l-.012.011a.18.18 0 0 0-.052.121" fill="#FFB93E" mask="url(#d)"/>
            <path d="M22.921 37h7.361a.095.095 0 0 0 .019-.002c.133-.013.24-.09.257-.185.001-.007.003-.013.003-.02v-.587a.114.114 0 0 0-.003-.02.754.754 0 0 0-.007-.025c-.035-.092-.15-.161-.285-.161h-6.443a.263.263 0 0 1-.009.024c-.106.29-.345.679-.879.97a.055.055 0 0 0-.014.006M18.564 37h.12v-1h-.12z" fill="#FFA412" mask="url(#d)"/>
            <path fill="#FFA412" mask="url(#d)" d="M18.564 37h.12v-1h-.12zM19.519 37h.12v-1h-.12zM20.474 37h.12v-1h-.12zM22.384 37h.12v-1h-.12zM23.34 37h.119v-1h-.12zM24.294 37h.12v-1h-.12zM26.204 37h.12v-1h-.12zM17.609 37h.12v-1h-.12z"/>
            <path fill="#FFA412" mask="url(#d)" d="M17.609 37h.12v-1h-.12z"/>
            <path fill="#FFA412" mask="url(#d)" d="M17.609 37h.12v-1h-.12zM16.654 36.003v.993c.014.002.03.004.045.004h.074v-1H16.7a.338.338 0 0 0-.045.003"/>
            <path d="M16.654 36.084v.832c.028.038.07.067.12.084v-1a.253.253 0 0 0-.12.084" fill="#FFA412" mask="url(#d)"/>
            <path d="M16.236 35.218v.565c0 .044.02.086.053.121a.314.314 0 0 0 .145.081.36.36 0 0 0 .056.011.332.332 0 0 0 .055.004h12.753c.051 0 .1-.009.142-.024.085-.031.147-.09.163-.158.001-.005.001-.01.003-.014v-.597a.122.122 0 0 0-.003-.02c-.023-.106-.151-.187-.305-.187H16.545a.49.49 0 0 0-.111.016.306.306 0 0 0-.145.081.175.175 0 0 0-.053.121" fill="#FFB93E" mask="url(#d)"/>
            <path d="M21.966 36h7.345a.378.378 0 0 0 .136-.024c.081-.032.141-.09.156-.158l.002-.015v-.01c.002-.003.002-.006.002-.011v-.564c0-.004 0-.008-.002-.011a.104.104 0 0 0-.002-.02l-.007-.024c-.034-.093-.15-.163-.285-.163h-6.443c-.1.287-.33.679-.857.976l-.045.024M17.609 36h.12v-1h-.12zM18.564 36h.12v-1h-.12z" fill="#FFA412" mask="url(#d)"/>
            <path fill="#FFA412" mask="url(#d)" d="M18.564 36h.12v-1h-.12zM19.519 36h.12v-1h-.12zM20.474 36h.12v-1h-.12zM22.384 36h.12v-1h-.12zM24.294 36h.12v-1h-.12zM25.25 36h.119v-1h-.12zM17.609 36h.12v-1h-.12zM16.654 36h.12v-1h-.12z"/>
            <path fill="#FFA412" mask="url(#d)" d="M16.654 36h.12v-1h-.12z"/>
            <path d="M16.654 35.003v.993c.014.002.03.004.045.004h.074v-1H16.7a.338.338 0 0 0-.045.003" fill="#FFA412" mask="url(#d)"/>
            <path d="M16.654 35.084v.832c.03.038.07.067.12.084v-1a.257.257 0 0 0-.12.084" fill="#FFA412" mask="url(#d)"/>
            <path d="M15.28 33.217v.566c0 .044.02.086.053.12l.015.014a.283.283 0 0 0 .109.062.337.337 0 0 0 .079.017.331.331 0 0 0 .053.004h12.754c.154 0 .282-.08.305-.185.001-.007.003-.014.003-.022v-.587c-.007-.106-.124-.192-.272-.205L28.343 33H15.59a.493.493 0 0 0-.11.015.315.315 0 0 0-.131.068c-.005.003-.01.008-.015.013a.18.18 0 0 0-.052.121" fill="#FFB93E" mask="url(#d)"/>
            <path d="M21.011 34h7.345c.135 0 .251-.069.285-.162l.007-.022.002-.022c.002-.004.002-.008.002-.011v-.566c0-.003 0-.006-.002-.01-.006-.106-.118-.193-.26-.205-.01-.002-.023-.002-.034-.002h-6.443v.002c-.103.294-.343.7-.902.998M16.654 34h.12v-1h-.12z" fill="#FFA412" mask="url(#d)"/>
            <path fill="#FFA412" mask="url(#d)" d="M16.654 34h.12v-1h-.12zM17.609 34h.12v-1h-.12zM18.564 34h.12v-1h-.12zM19.519 34h.12v-1h-.12zM20.474 34h.12v-1h-.12zM23.34 34h.119v-1h-.12zM24.294 34h.12v-1h-.12z"/>
            <path fill="#FFA412" mask="url(#d)" d="M16.654 34h.12v-1h-.12zM15.699 34h.12v-1h-.12z"/>
            <path fill="#FFA412" mask="url(#d)" d="M15.699 34h.12v-1h-.12z"/>
            <path d="M15.699 33.003v.993c.014.002.03.004.045.004h.074v-1h-.074a.338.338 0 0 0-.045.003M14.744 33.083v.833a.26.26 0 0 0 .12.084v-1a.244.244 0 0 0-.12.083" fill="#FFA412" mask="url(#d)"/>
            <path d="M17.191 32.217v.566c0 .044.02.086.052.12a.324.324 0 0 0 .202.093l.018.003h.002l.013.001h12.775c.111 0 .208-.04.263-.104a.18.18 0 0 0 .046-.102v-.588c-.007-.092-.097-.17-.22-.196a.376.376 0 0 0-.089-.01h-12.77a.02.02 0 0 0-.008.001c-.01 0-.02 0-.03.003a.36.36 0 0 0-.083.02.303.303 0 0 0-.089.046l-.001.002c-.001 0-.002 0-.005.003a.18.18 0 0 0-.076.143" fill="#FFB93E" mask="url(#d)"/>
            <path d="M22.921 33h7.344c.103 0 .195-.04.247-.099a.175.175 0 0 0 .049-.107v-.588c-.007-.1-.106-.182-.236-.201a.293.293 0 0 0-.06-.005h-6.442a.25.25 0 0 1-.009.023c-.106.292-.347.685-.89.976L22.92 33M18.564 33h.12v-1h-.12z" fill="#FFA412" mask="url(#d)"/>
            <path fill="#FFA412" mask="url(#d)" d="M18.564 33h.12v-1h-.12zM19.519 33h.12v-1h-.12zM20.474 33h.12v-1h-.12zM22.384 33h.12v-1h-.12zM23.34 33h.119v-1h-.12zM24.294 33h.12v-1h-.12zM26.204 33h.12v-1h-.12zM17.609 33h.12v-1h-.12z"/>
            <path fill="#FFA412" mask="url(#d)" d="M17.609 33h.12v-1h-.12z"/>
            <path fill="#FFA412" mask="url(#d)" d="M17.609 33h.12v-1h-.12zM16.654 32.003v.993c.015.002.03.004.045.004h.074v-1H16.7a.348.348 0 0 0-.045.003"/>
            <path d="M16.654 32.084v.832c.028.038.07.067.12.084v-1a.253.253 0 0 0-.12.084" fill="#FFA412" mask="url(#d)"/>
            <path d="M16.236 31.217v.566c0 .044.02.086.053.12a.314.314 0 0 0 .145.082.36.36 0 0 0 .056.011.331.331 0 0 0 .055.004h12.753a.41.41 0 0 0 .138-.023c.093-.032.16-.098.17-.174v-.597c-.007-.106-.124-.192-.27-.205L29.297 31H16.545a.493.493 0 0 0-.111.015.314.314 0 0 0-.145.081.176.176 0 0 0-.053.121" fill="#FFB93E" mask="url(#d)"/>
            <path d="M21.966 32h7.345a.384.384 0 0 0 .132-.023c.09-.033.153-.098.162-.175v-.009c.002-.004.002-.008.002-.011v-.565c0-.003 0-.007-.002-.011-.006-.106-.118-.192-.26-.205L29.31 31h-6.443v.001c-.1.287-.332.68-.86.976l-.042.023M17.609 32h.12v-1h-.12z" fill="#FFA412" mask="url(#d)"/>
            <path fill="#FFA412" mask="url(#d)" d="M17.609 32h.12v-1h-.12zM18.564 32h.12v-1h-.12zM19.519 32h.12v-1h-.12zM20.474 32h.12v-1h-.12zM22.384 32h.12v-1h-.12zM23.34 32h.119v-1h-.12zM25.25 32h.119v-1h-.12zM16.654 32h.12v-1h-.12z"/>
            <path fill="#FFA412" mask="url(#d)" d="M16.654 32h.12v-1h-.12z"/>
            <path fill="#FFA412" mask="url(#d)" d="M16.654 32h.12v-1h-.12zM15.699 31.003v.993c.014.002.03.004.045.004h.074v-1h-.074a.338.338 0 0 0-.045.003"/>
            <path d="M15.699 31.083v.833a.26.26 0 0 0 .12.084v-1a.244.244 0 0 0-.12.083" fill="#FFA412" mask="url(#d)"/>
            <path d="M15.28 30.217v.566c0 .044.02.086.053.12a.324.324 0 0 0 .146.082.522.522 0 0 0 .056.012l.017.002h.01l.011.001h12.77c.164 0 .3-.092.309-.207v-.586c-.008-.115-.145-.207-.309-.207H15.59a.493.493 0 0 0-.11.015.324.324 0 0 0-.146.081.18.18 0 0 0-.052.121" fill="#FFB93E" mask="url(#d)"/>
            <path d="M21.966 31h7.344c.158 0 .288-.092.295-.207l.002-.01v-.566l-.002-.01c-.007-.116-.137-.207-.295-.207h-6.442c-.103.293-.341.7-.9.999l-.002.001M16.654 31h.12v-1h-.12zM17.609 31h.12v-1h-.12z" fill="#FFA412" mask="url(#d)"/>
            <path fill="#FFA412" mask="url(#d)" d="M17.609 31h.12v-1h-.12zM18.564 31h.12v-1h-.12zM19.519 31h.12v-1h-.12zM22.384 31h.12v-1h-.12zM23.34 31h.119v-1h-.12zM24.294 31h.12v-1h-.12zM16.654 31h.12v-1h-.12z"/>
            <path fill="#FFA412" mask="url(#d)" d="M16.654 31h.12v-1h-.12zM15.699 31h.12v-1h-.12z"/>
            <path d="M15.699 30.003v.993c.015.002.03.004.045.004h.074v-1h-.074a.348.348 0 0 0-.045.003" fill="#FFA412" mask="url(#d)"/>
            <path d="M15.699 30.084v.832c.03.038.07.067.12.084v-1a.257.257 0 0 0-.12.084" fill="#FFA412" mask="url(#d)"/>
            <path d="M27.697 43.217v.566c0 .044.02.086.053.12a.314.314 0 0 0 .144.082.36.36 0 0 0 .057.011.331.331 0 0 0 .054.004H40.76c.155 0 .283-.08.306-.185a.123.123 0 0 0 .002-.022v-.587c0-.007 0-.014-.002-.022-.023-.103-.151-.184-.306-.184H28.005a.493.493 0 0 0-.11.015.314.314 0 0 0-.145.081.176.176 0 0 0-.053.121" fill="#FFB93E" mask="url(#d)"/>
            <path d="M34.382 44h7.345c.135 0 .25-.069.284-.161a.085.085 0 0 0 .008-.023l.003-.022v-.587c0-.008-.002-.015-.003-.022a.081.081 0 0 0-.008-.024c-.034-.092-.149-.161-.284-.161h-6.443c-.103.294-.343.702-.902 1M29.07 44h.119v-1h-.12zM30.025 44h.119v-1h-.12z" fill="#FFA412" mask="url(#d)"/>
            <path fill="#FFA412" mask="url(#d)" d="M30.025 44h.119v-1h-.12zM30.98 44h.119v-1h-.12zM31.935 44h.12v-1h-.12zM33.845 44h.12v-1h-.12zM34.8 44h.12v-1h-.12zM36.71 44h.12v-1h-.12zM29.07 44h.119v-1h-.12z"/>
            <path fill="#FFA412" mask="url(#d)" d="M29.07 44h.119v-1h-.12zM28.114 44h.12v-1h-.12z"/>
            <path d="M28.114 43.003v.993c.015.002.03.004.045.004h.075v-1h-.075a.338.338 0 0 0-.045.003" fill="#FFA412" mask="url(#d)"/>
            <path d="M28.114 43.083v.833a.26.26 0 0 0 .12.084v-1a.244.244 0 0 0-.12.083" fill="#FFA412" mask="url(#d)"/>
            <path d="M29.607 41.218v.565a.18.18 0 0 0 .082.146.336.336 0 0 0 .172.067.332.332 0 0 0 .054.004H42.67c.155 0 .283-.08.305-.185l.004-.022v-.586a1 1 0 0 1-.004-.022c-.022-.104-.15-.185-.305-.185H29.915l-.024.001h-.01l-.012.002h-.008a.523.523 0 0 0-.057.013c-.01.002-.02.005-.03.01a.181.181 0 0 1-.022.007l-.01.006c-.004 0-.007.003-.01.005a.183.183 0 0 0-.037.023.1.1 0 0 0-.012.009 48.47 48.47 0 0 0-.01.008l-.002.001-.012.012a.18.18 0 0 0-.052.121" fill="#FFB93E" mask="url(#d)"/>
            <path d="M35.337 42h7.345c.135 0 .25-.069.284-.162l.008-.023a.125.125 0 0 0 .002-.022c.002-.003.002-.006.002-.011v-.564c0-.004 0-.008-.002-.011a.125.125 0 0 0-.002-.022l-.008-.023c-.034-.092-.149-.162-.284-.162h-6.443l-.009.025c-.108.292-.35.685-.893.975M30.98 42h.119v-1h-.12z" fill="#FFA412" mask="url(#d)"/>
            <path fill="#FFA412" mask="url(#d)" d="M30.98 42h.119v-1h-.12zM31.935 42h.12v-1h-.12zM32.89 42h.12v-1h-.12zM33.845 42h.12v-1h-.12zM34.8 42h.12v-1h-.12zM36.71 42h.12v-1h-.12zM38.62 42h.12v-1h-.12zM30.025 42h.119v-1h-.12z"/>
            <path fill="#FFA412" mask="url(#d)" d="M30.025 42h.119v-1h-.12z"/>
            <path fill="#FFA412" mask="url(#d)" d="M30.025 42h.119v-1h-.12zM29.07 41.004v.992c.015.002.03.004.044.004h.075v-1h-.075c-.015 0-.03.002-.044.004"/>
            <path d="M29.07 41.084v.832c.028.037.07.066.119.084v-1a.253.253 0 0 0-.12.084" fill="#FFA412" mask="url(#d)"/>
            <path d="M28.652 40.217v.566c0 .044.02.086.053.12a.314.314 0 0 0 .144.082.36.36 0 0 0 .057.011.331.331 0 0 0 .054.004h12.754c.052 0 .1-.01.142-.025.086-.03.147-.09.163-.158l.002-.014.001-.01v-.587c0-.007 0-.014-.003-.02-.022-.105-.15-.186-.305-.186H28.96a.493.493 0 0 0-.11.015.314.314 0 0 0-.145.081.176.176 0 0 0-.053.121" fill="#FFB93E" mask="url(#d)"/>
            <path d="M34.382 41h7.345c.048 0 .094-.01.135-.025.082-.031.142-.09.156-.158l.003-.014v-.01a.034.034 0 0 0 .001-.01v-.577a.104.104 0 0 0-.003-.02c-.003-.01-.004-.016-.008-.024-.033-.093-.149-.162-.284-.162h-6.443c-.1.285-.33.679-.857.975l-.045.025M30.025 41h.119v-1h-.12zM30.98 41h.119v-1h-.12z" fill="#FFA412" mask="url(#d)"/>
            <path fill="#FFA412" mask="url(#d)" d="M30.98 41h.119v-1h-.12zM31.935 41h.12v-1h-.12zM32.89 41h.12v-1h-.12zM33.845 41h.12v-1h-.12zM36.71 41h.12v-1h-.12zM37.665 41h.12v-1h-.12zM30.025 41h.119v-1h-.12zM29.07 41h.119v-1h-.12z"/>
            <path fill="#FFA412" mask="url(#d)" d="M29.07 41h.119v-1h-.12z"/>
            <path d="M29.07 40.004v.992c.014.002.03.004.044.004h.075v-1h-.075a.336.336 0 0 0-.044.004" fill="#FFA412" mask="url(#d)"/>
            <path d="M29.07 40.084v.832a.26.26 0 0 0 .119.084v-1a.253.253 0 0 0-.12.084" fill="#FFA412" mask="url(#d)"/>
            <path d="M28.652 39.218v.565c0 .044.02.086.053.121l.014.014c.024.02.053.04.088.053a.308.308 0 0 0 .099.025l.027.003.027.001h12.754c.155 0 .283-.08.305-.185l.003-.022v-.586c-.008-.106-.124-.192-.271-.205L41.714 39H28.96l-.027.001c-.01 0-.018.002-.027.003a.523.523 0 0 0-.057.012.306.306 0 0 0-.144.081.174.174 0 0 0-.053.121" fill="#FFB93E" mask="url(#d)"/>
            <path d="M34.382 40h7.345c.135 0 .25-.069.284-.162a.075.075 0 0 0 .008-.023l.003-.022v-.586c-.007-.106-.119-.192-.26-.205a.418.418 0 0 0-.035-.002h-6.443v.002c-.103.294-.343.7-.902.998M30.025 40h.119v-1h-.12z" fill="#FFA412" mask="url(#d)"/>
            <path fill="#FFA412" mask="url(#d)" d="M30.025 40h.119v-1h-.12zM30.98 40h.119v-1h-.12zM31.935 40h.12v-1h-.12zM32.89 40h.12v-1h-.12zM33.845 40h.12v-1h-.12zM36.71 40h.12v-1h-.12zM37.665 40h.12v-1h-.12zM29.07 40h.119v-1h-.12z"/>
            <path fill="#FFA412" mask="url(#d)" d="M29.07 40h.119v-1h-.12z"/>
            <path fill="#FFA412" mask="url(#d)" d="M29.07 40h.119v-1h-.12zM28.114 39.004v.993l.045.003h.075v-1h-.075c-.015 0-.03.002-.045.004"/>
            <path d="M28.114 39.084v.833c.03.037.071.066.12.083v-1a.257.257 0 0 0-.12.084" fill="#FFA412" mask="url(#d)"/>
            <path d="M29.607 38.217v.566c0 .044.02.086.052.12a.324.324 0 0 0 .202.093.105.105 0 0 0 .017.002h.003a.034.034 0 0 0 .009.001.02.02 0 0 1 .008.001H42.669c.164 0 .3-.092.307-.207.002-.003.002-.007.002-.01v-.566c0-.003 0-.007-.002-.011v-.009c-.012-.092-.107-.168-.23-.19A.504.504 0 0 0 42.67 38H29.914a.254.254 0 0 0-.039.002h-.015a.522.522 0 0 0-.057.013.315.315 0 0 0-.145.081.18.18 0 0 0-.052.121" fill="#FFB93E" mask="url(#d)"/>
            <path d="M35.337 39h7.345c.158 0 .287-.092.294-.207.002-.003.002-.007.002-.011v-.565c0-.003 0-.007-.002-.011v-.009c-.012-.094-.107-.172-.23-.192l-.012-.002a.47.47 0 0 0-.052-.003h-6.443l-.003.007c-.103.293-.344.695-.896.991l-.003.002M30.98 39h.119v-1h-.12z" fill="#FFA412" mask="url(#d)"/>
            <path fill="#FFA412" mask="url(#d)" d="M30.98 39h.119v-1h-.12zM31.935 39h.12v-1h-.12zM32.89 39h.12v-1h-.12zM33.845 39h.12v-1h-.12zM34.8 39h.12v-1h-.12zM36.71 39h.12v-1h-.12zM38.62 39h.12v-1h-.12zM30.025 39h.119v-1h-.12z"/>
            <path fill="#FFA412" mask="url(#d)" d="M30.025 39h.119v-1h-.12z"/>
            <path fill="#FFA412" mask="url(#d)" d="M30.025 39h.119v-1h-.12zM29.07 38.003v.993c.014.002.03.004.044.004h.075v-1h-.075a.338.338 0 0 0-.044.003"/>
            <path d="M29.07 38.083v.833a.26.26 0 0 0 .119.084v-1a.244.244 0 0 0-.12.083" fill="#FFA412" mask="url(#d)"/>
            <path d="M29.607 36.217v.566c0 .044.02.086.052.12.009.01.02.018.03.027.031.024.07.044.115.055a.711.711 0 0 0 .044.01h.001l.012.001a.331.331 0 0 0 .054.004H42.67c.013 0 .027 0 .04-.002a.08.08 0 0 0 .015-.002c.13-.016.233-.091.251-.183l.003-.02v-.587l-.004-.02c-.022-.105-.15-.186-.305-.186H29.891l-.003.001h-.019l-.008.002a.522.522 0 0 0-.057.012.304.304 0 0 0-.133.07l-.012.011a.18.18 0 0 0-.052.121" fill="#FFB93E" mask="url(#d)"/>
            <path d="M35.337 37h7.361a.107.107 0 0 0 .019-.002c.133-.013.24-.09.257-.185l.002-.02c.002-.004.002-.008.002-.011v-.565c0-.003 0-.007-.002-.011a.114.114 0 0 0-.002-.02l-.008-.025c-.034-.092-.149-.161-.284-.161h-6.443l-.009.024c-.107.29-.345.679-.88.97a.055.055 0 0 0-.013.006M30.98 37h.119v-1h-.12z" fill="#FFA412" mask="url(#d)"/>
            <path fill="#FFA412" mask="url(#d)" d="M30.98 37h.119v-1h-.12zM31.935 37h.12v-1h-.12zM32.89 37h.12v-1h-.12zM33.845 37h.12v-1h-.12zM34.8 37h.12v-1h-.12zM36.71 37h.12v-1h-.12zM38.62 37h.12v-1h-.12zM30.025 37h.119v-1h-.12z"/>
            <path fill="#FFA412" mask="url(#d)" d="M30.025 37h.119v-1h-.12z"/>
            <path fill="#FFA412" mask="url(#d)" d="M30.025 37h.119v-1h-.12zM29.07 36.003v.993c.015.002.03.004.044.004h.075v-1h-.075a.348.348 0 0 0-.044.003"/>
            <path d="M29.07 36.084v.832c.028.038.07.067.119.084v-1a.253.253 0 0 0-.12.084" fill="#FFA412" mask="url(#d)"/>
            <path d="M28.652 35.218v.565c0 .044.02.086.053.121a.314.314 0 0 0 .144.081.36.36 0 0 0 .057.011.332.332 0 0 0 .054.004h12.754a.41.41 0 0 0 .142-.024c.086-.031.147-.09.163-.158l.002-.014.001-.01v-.587c0-.007 0-.014-.003-.02-.022-.106-.15-.187-.305-.187H28.96a.49.49 0 0 0-.11.016.306.306 0 0 0-.145.081.175.175 0 0 0-.053.121" fill="#FFB93E" mask="url(#d)"/>
            <path d="M34.382 36h7.345a.383.383 0 0 0 .135-.024c.082-.032.142-.09.156-.158l.003-.015v-.01l.001-.011v-.575a.104.104 0 0 0-.003-.02c-.003-.01-.004-.016-.008-.024-.033-.093-.149-.163-.284-.163h-6.443c-.1.287-.33.679-.857.976l-.045.024M30.025 36h.119v-1h-.12zM30.98 36h.119v-1h-.12z" fill="#FFA412" mask="url(#d)"/>
            <path fill="#FFA412" mask="url(#d)" d="M30.98 36h.119v-1h-.12zM31.935 36h.12v-1h-.12zM32.89 36h.12v-1h-.12zM33.845 36h.12v-1h-.12zM36.71 36h.12v-1h-.12zM37.665 36h.12v-1h-.12zM30.025 36h.119v-1h-.12zM29.07 36h.119v-1h-.12z"/>
            <path fill="#FFA412" mask="url(#d)" d="M29.07 36h.119v-1h-.12z"/>
            <path d="M29.07 35.003v.993c.014.002.03.004.044.004h.075v-1h-.075a.338.338 0 0 0-.044.003" fill="#FFA412" mask="url(#d)"/>
            <path d="M29.07 35.084v.832c.028.038.07.067.119.084v-1a.253.253 0 0 0-.12.084" fill="#FFA412" mask="url(#d)"/>
            <path d="M27.697 33.217v.566c0 .044.02.086.052.12l.015.014a.308.308 0 0 0 .108.062c.007.003.015.004.022.006a.36.36 0 0 0 .057.011.331.331 0 0 0 .054.004H40.76c.155 0 .283-.08.305-.185.002-.007.002-.014.003-.022v-.587c-.008-.106-.124-.192-.272-.205L40.759 33H28.005a.493.493 0 0 0-.11.015.315.315 0 0 0-.131.068c-.005.003-.01.008-.014.013h-.001a.18.18 0 0 0-.052.121" fill="#FFB93E" mask="url(#d)"/>
            <path d="M33.427 34h7.345c.135 0 .25-.069.284-.162l.008-.022.002-.022.001-.011v-.576c-.007-.106-.119-.193-.26-.205-.012-.002-.024-.002-.035-.002h-6.443v.002c-.103.294-.344.7-.902.998M29.07 34h.119v-1h-.12zM30.025 34h.119v-1h-.12z" fill="#FFA412" mask="url(#d)"/>
            <path fill="#FFA412" mask="url(#d)" d="M30.025 34h.119v-1h-.12zM30.98 34h.119v-1h-.12zM31.935 34h.12v-1h-.12zM32.89 34h.12v-1h-.12zM34.8 34h.12v-1h-.12zM36.71 34h.12v-1h-.12zM29.07 34h.119v-1h-.12zM28.114 34h.12v-1h-.12z"/>
            <path fill="#FFA412" mask="url(#d)" d="M28.114 34h.12v-1h-.12z"/>
            <path d="M28.114 33.003v.993c.016.002.03.004.045.004h.075v-1h-.075a.348.348 0 0 0-.045.003" fill="#FFA412" mask="url(#d)"/>
            <path d="M28.114 33.083v.833a.26.26 0 0 0 .12.084v-1a.244.244 0 0 0-.12.083" fill="#FFA412" mask="url(#d)"/>
            <path d="M29.607 32.217v.566c0 .044.02.086.052.12a.324.324 0 0 0 .202.093l.017.003h.003l.012.001H42.67c.11 0 .208-.04.262-.104a.17.17 0 0 0 .045-.102c.002-.005.002-.009.002-.011v-.566c0-.003 0-.007-.002-.011-.007-.092-.097-.17-.218-.196a.376.376 0 0 0-.089-.01H29.898l-.007.001c-.01 0-.02 0-.03.003a.36.36 0 0 0-.172.066l-.003.002s-.002 0-.003.003a.18.18 0 0 0-.076.143" fill="#FFB93E" mask="url(#d)"/>
            <path d="M35.337 33h7.345c.103 0 .194-.04.247-.099a.18.18 0 0 0 .047-.107c.002-.005.002-.009.002-.011v-.566c0-.003 0-.007-.002-.011-.006-.1-.105-.182-.236-.201a.289.289 0 0 0-.058-.005h-6.443a.25.25 0 0 1-.009.023c-.107.292-.348.685-.89.976l-.003.001M30.98 33h.119v-1h-.12z" fill="#FFA412" mask="url(#d)"/>
            <path fill="#FFA412" mask="url(#d)" d="M30.98 33h.119v-1h-.12zM31.935 33h.12v-1h-.12zM32.89 33h.12v-1h-.12zM33.845 33h.12v-1h-.12zM34.8 33h.12v-1h-.12zM36.71 33h.12v-1h-.12zM38.62 33h.12v-1h-.12zM30.025 33h.119v-1h-.12z"/>
            <path fill="#FFA412" mask="url(#d)" d="M30.025 33h.119v-1h-.12z"/>
            <path fill="#FFA412" mask="url(#d)" d="M30.025 33h.119v-1h-.12zM29.07 32.003v.993c.014.002.03.004.044.004h.075v-1h-.075a.338.338 0 0 0-.044.003"/>
            <path d="M29.07 32.084v.832c.028.038.07.067.119.084v-1a.253.253 0 0 0-.12.084" fill="#FFA412" mask="url(#d)"/>
            <path d="M28.652 31.217v.566c0 .044.02.086.052.12a.324.324 0 0 0 .202.093.331.331 0 0 0 .054.004h12.754c.05 0 .096-.009.137-.023.094-.032.16-.098.17-.174l.001-.01v-.587c-.008-.106-.124-.192-.272-.205L41.714 31H28.96a.493.493 0 0 0-.11.015.324.324 0 0 0-.146.081.18.18 0 0 0-.052.121" fill="#FFB93E" mask="url(#d)"/>
            <path d="M34.382 32h7.345a.384.384 0 0 0 .132-.023c.089-.033.152-.098.162-.175l.001-.009v-.587c-.007-.106-.119-.192-.26-.205L41.727 31h-6.443v.001c-.1.287-.332.68-.86.976a1.292 1.292 0 0 1-.042.023M30.025 32h.119v-1h-.12z" fill="#FFA412" mask="url(#d)"/>
            <path fill="#FFA412" mask="url(#d)" d="M30.025 32h.119v-1h-.12zM30.98 32h.119v-1h-.12zM31.935 32h.12v-1h-.12zM32.89 32h.12v-1h-.12zM33.845 32h.12v-1h-.12zM36.71 32h.12v-1h-.12zM37.665 32h.12v-1h-.12zM29.07 32h.119v-1h-.12z"/>
            <path fill="#FFA412" mask="url(#d)" d="M29.07 32h.119v-1h-.12z"/>
            <path fill="#FFA412" mask="url(#d)" d="M29.07 32h.119v-1h-.12zM28.114 31.003v.993c.016.002.03.004.045.004h.075v-1h-.075a.348.348 0 0 0-.045.003"/>
            <path d="M28.114 31.083v.833c.03.037.071.067.12.084v-1a.249.249 0 0 0-.12.083" fill="#FFA412" mask="url(#d)"/>
            <path d="M27.697 30.217v.566c0 .044.02.086.053.12a.314.314 0 0 0 .144.082.522.522 0 0 0 .057.012l.017.002h.01a.038.038 0 0 0 .011.001h12.77c.165 0 .3-.092.308-.207v-.586c-.008-.115-.143-.207-.308-.207H28.005a.493.493 0 0 0-.11.015.314.314 0 0 0-.145.081.176.176 0 0 0-.053.121" fill="#FFB93E" mask="url(#d)"/>
            <path d="M34.382 31h7.345c.158 0 .287-.092.294-.207l.001-.01v-.576c-.008-.116-.137-.207-.295-.207h-6.443c-.102.293-.342.7-.9.999l-.002.001M29.07 31h.119v-1h-.12zM30.025 31h.119v-1h-.12z" fill="#FFA412" mask="url(#d)"/>
            <path fill="#FFA412" mask="url(#d)" d="M30.025 31h.119v-1h-.12zM30.98 31h.119v-1h-.12zM31.935 31h.12v-1h-.12zM33.845 31h.12v-1h-.12zM34.8 31h.12v-1h-.12zM36.71 31h.12v-1h-.12zM29.07 31h.119v-1h-.12z"/>
            <path fill="#FFA412" mask="url(#d)" d="M29.07 31h.119v-1h-.12zM28.114 31h.12v-1h-.12z"/>
            <path d="M28.114 30.003v.993c.015.002.03.004.045.004h.075v-1h-.075a.338.338 0 0 0-.045.003" fill="#FFA412" mask="url(#d)"/>
            <path d="M28.114 30.084v.832c.03.038.071.067.12.084v-1a.253.253 0 0 0-.12.084" fill="#FFA412" mask="url(#d)"/>
            <path d="M43.33 19s-.495-1.2-1.82-1.23c-1.328-.031-1.76-.607-2.167-1.174-.352-.49-.266-.802.811-.437 1.078.365 1.894.048 2.544.091.356.023.765.53 1.03.778.58.55 1.16.981 1.16.981L43.329 19z" fill="#FFB27D" mask="url(#d)"/>
            <path d="m60.169 24.371-1.328 4.504s-1.246.16-3.087.118c-1.93-.043-4.512-.309-6.995-1.213v-.002c-.197-.07-.392-.145-.587-.224-1.88-.77-5.194-8.568-5.194-8.568L45.037 18s3.71 5.123 4.964 5.298c2.36.332 9.12-1.355 9.12-1.355l1.048 2.428z" fill="#8C9DF4" mask="url(#d)"/>
            <path d="M56.225 29c-2.074-.04-4.848-.28-7.517-1.098.057.013 2.558.55 4.034.148 1.494-.406 4.066-1.626 5.317-.727.701.507-.576 1.182-1.834 1.677" fill="#6980E2" mask="url(#d)"/>
            <path d="M14.326 25.378s-4.745 1.024-5.066.444l-.664-7.82s.802-.09 1.09 1.148c.288 1.236 1.134 3.37 2.623 3.584 1.49.213 2.017 2.644 2.017 2.644" fill="#2C3A64" mask="url(#d)"/>
            <path d="M42.108 27.836a1.14 1.14 0 0 1 .122-.243c.035-.055.076-.106.12-.153l.183-.23.052.04c.958-.595 3-.115 5.101 1.304 2.54 1.716 4.221 4.169 3.816 5.536l.071.055-.262.325-.04.049-.007.009-.003.001a1.177 1.177 0 0 1-.23.2l-.002.002c-.943.623-3.007.15-5.132-1.285-2.587-1.747-4.282-4.26-3.79-5.61" fill="#FFA412" mask="url(#d)"/>
            <path d="M47.693 28.554c-2.59-1.748-5.09-2.07-5.585-.72-.494 1.352 1.205 3.863 3.795 5.613 2.59 1.747 5.09 2.068 5.585.718.494-1.351-1.205-3.863-3.795-5.61" fill="#FFB93E" mask="url(#d)"/>
            <path d="M42.8 27.266c-.265.083-.442.228-.528.43-.182.424.064 1.085.674 1.817.633.76 1.586 1.52 2.682 2.139 1.365.771 2.766 1.202 3.704 1.163.19-.008.36-.034.51-.081.263-.085.44-.23.526-.43.182-.424-.064-1.087-.674-1.817-.634-.761-1.587-1.52-2.682-2.14-1.365-.77-2.766-1.202-3.705-1.163-.19.007-.36.035-.508.082m2.731 4.54c-1.114-.629-2.084-1.404-2.733-2.181-.663-.795-.913-1.504-.7-1.998.107-.252.324-.431.642-.532.943-.302 2.659.13 4.371 1.097 1.114.63 2.085 1.405 2.734 2.181.663.796.912 1.506.7 2-.108.25-.324.43-.642.532a2.203 2.203 0 0 1-.567.092c-.982.04-2.395-.393-3.805-1.19M72.73 25.407a.844.844 0 0 1 .252-.232l.182-.131.04.03c.89-.284 2.592.256 4.24 1.419 1.993 1.405 3.166 3.2 2.665 4.054l.057.043-.264.186c-.012.008-.024.018-.038.026l-.007.006h-.002c-.067.043-.14.079-.22.107h-.002c-.88.306-2.6-.23-4.267-1.407-2.03-1.432-3.21-3.268-2.637-4.1" fill="#FFA412" mask="url(#d)"/>
            <path d="M77.444 26.492c-2.03-1.432-4.14-1.918-4.715-1.085-.573.834.607 2.669 2.636 4.102 2.03 1.43 4.14 1.917 4.715 1.084.573-.833-.606-2.669-2.636-4.1" fill="#FFB93E" mask="url(#d)"/>
            <path d="M74.187 25.18a.585.585 0 0 0-.425.31c-.177.35-.074.959.282 1.672.37.742.967 1.522 1.683 2.197.89.843 1.846 1.39 2.522 1.47.136.016.262.014.374-.01a.58.58 0 0 0 .423-.31c.178-.349.075-.958-.28-1.672-.37-.742-.968-1.523-1.683-2.197-.892-.841-1.846-1.388-2.523-1.47a1.172 1.172 0 0 0-.373.01m1.453 4.304c-.729-.688-1.337-1.484-1.715-2.242-.387-.775-.487-1.427-.281-1.833a.719.719 0 0 1 .52-.386c.708-.148 1.888.437 3.005 1.493.729.687 1.337 1.483 1.716 2.241.386.777.486 1.428.28 1.834a.717.717 0 0 1-.518.386c-.125.027-.265.03-.416.012-.707-.085-1.67-.636-2.591-1.505" fill="#FFA412" mask="url(#d)"/>
            <path d="M50.618 31.719s-11.062-9.01-22.107-11.453c-3.578-.792-11.332.381-14.765.973-.922.16-1.497.24-1.287 1.167l.395 2.358c.133.587.449.605 1.037.671 2.923.331 11.569 1.38 14.634 2.532C32.555 29.48 43.24 37 43.24 37l6.607-.386.771-4.895z" fill="#2C3A64" mask="url(#d)"/>
            <path d="M14.326 31.575s-5.243 1.866-5.697 1.327l-1.944-7.885s.901-.229 1.416.987c.514 1.215 1.802 3.253 3.529 3.214 1.728-.039 2.696 2.357 2.696 2.357" fill="#163560" mask="url(#d)"/>
            <path d="M.12 30.827c.04-.094.089-.179.147-.255v-.001c.043-.058.091-.111.142-.159l.217-.239.056.046c1.102-.592 3.378.034 5.68 1.682 2.784 1.993 4.57 4.734 4.055 6.192l.08.064-.311.337c-.015.019-.03.035-.045.05l-.01.01-.001.003c-.08.079-.17.147-.269.204l-.001.001c-1.089.624-3.39.003-5.716-1.663C1.308 35.07-.493 32.262.12 30.827" fill="#FFA412" mask="url(#d)"/>
            <path d="M6.362 31.902C3.528 29.874.732 29.392.12 30.826c-.613 1.436 1.188 4.243 4.022 6.272 2.836 2.028 5.63 2.51 6.244 1.076.613-1.436-1.189-4.244-4.024-6.272" fill="#FFB93E" mask="url(#d)"/>
            <path d="M1.875 30.31c-.303.094-.513.27-.62.523-.229.534.016 1.397.67 2.365.682 1.007 1.722 2.031 2.934 2.882 1.51 1.062 3.077 1.687 4.144 1.687.215 0 .41-.026.581-.079.305-.093.513-.268.62-.52.23-.535-.015-1.398-.67-2.366-.681-1.009-1.722-2.031-2.933-2.883-1.51-1.06-3.077-1.687-4.145-1.687-.214 0-.41.026-.58.079m2.864 5.963c-1.231-.866-2.294-1.91-2.99-2.94-.711-1.053-.956-1.976-.69-2.598.133-.316.388-.535.756-.648 1.086-.336 3.011.307 4.904 1.637 1.232.867 2.293 1.91 2.99 2.94.71 1.054.957 1.976.692 2.599-.136.316-.39.534-.758.648a2.22 2.22 0 0 1-.648.088c-1.116 0-2.697-.63-4.256-1.726" fill="#FFA412" mask="url(#d)"/>
            <path d="M50.618 33.813s-12.24-7.067-23.508-7.796c-3.649-.236-11.14 2.04-14.446 3.117-.887.29-1.444.452-1.1 1.316l.732 2.218c.216.548.53.518 1.122.496 2.937-.113 11.63-.373 14.826.285C32.445 34.318 44.096 40 44.096 40l6.472-1.347.05-4.84z" fill="#23569E" mask="url(#d)"/>
            <path d="M58.7 23.706s-5.136 8.708-11.215 6.096c-2.193-.942-6.746 7.13-6.399 10.062.348 2.93 8.995 5.136 8.995 5.136l19.638-13.06-.564-8.743s-8.419-3.006-10.455.51" fill="#8C9DF4" mask="url(#d)"/>
            <path d="M22.193 37.249a.91.91 0 0 1-.115-.223v-.001a.871.871 0 0 1-.045-.178l-.067-.267.065-.023c.14-1.094 1.833-2.533 4.314-3.543 3-1.22 6.037-1.354 6.867-.322l.09-.032.092.383c.005.02.01.038.013.057l.003.011v.002c.017.095.021.192.012.292v.003c-.107 1.096-1.809 2.557-4.317 3.577-3.056 1.242-6.15 1.36-6.912.264" fill="#FFA412" mask="url(#d)"/>
            <path d="M26.31 32.015c-3.07 1.242-4.937 3.138-4.172 4.235.766 1.095 3.875.977 6.946-.265 3.069-1.242 4.937-3.138 4.171-4.234-.766-1.097-3.875-.978-6.944.264" fill="#F9AF38" mask="url(#d)"/>
            <path d="M23.167 35.647c-.083.25-.06.47.067.649.27.38 1.005.569 2.02.517 1.053-.055 2.295-.353 3.499-.842 1.5-.608 2.718-1.438 3.243-2.182.106-.149.184-.296.23-.436.083-.25.06-.47-.067-.649-.27-.38-1.005-.569-2.019-.517-1.054.055-2.297.354-3.5.842-1.5.608-2.718 1.438-3.243 2.182-.105.149-.183.296-.23.436m5.666.488c-1.224.496-2.492.8-3.57.856-1.102.057-1.881-.156-2.194-.599-.16-.226-.19-.494-.09-.796.293-.896 1.7-1.967 3.581-2.73 1.224-.497 2.491-.802 3.57-.857 1.102-.057 1.88.156 2.195.6.16.225.19.493.09.795a1.899 1.899 0 0 1-.256.488c-.549.777-1.777 1.615-3.326 2.243M73.729 30.375a.751.751 0 0 1-.096-.186h-.002v-.001a.75.75 0 0 1-.035-.148l-.057-.223.056-.02c.115-.91 1.526-2.11 3.593-2.95 2.5-1.018 5.03-1.131 5.723-.27l.075-.027.076.32a.305.305 0 0 1 .011.048l.002.007v.004a.84.84 0 0 1 .01.243c-.088.915-1.506 2.132-3.597 2.982-2.546 1.035-5.124 1.134-5.76.22" fill="#FFA412" mask="url(#d)"/>
            <path d="M77.159 26.846c-2.559 1.035-4.115 2.615-3.476 3.528.637.914 3.229.816 5.786-.219 2.559-1.036 4.116-2.615 3.478-3.53-.639-.913-3.23-.815-5.788.221" fill="#F9AF38" mask="url(#d)"/>
            <path d="M74.715 29.647c-.073.25-.053.468.061.649.243.381.905.57 1.816.517.95-.054 2.068-.353 3.151-.842 1.35-.608 2.446-1.439 2.92-2.181a1.78 1.78 0 0 0 .206-.437c.074-.25.053-.47-.06-.649-.242-.381-.904-.57-1.817-.517-.95.054-2.069.353-3.151.841-1.35.61-2.446 1.439-2.918 2.182-.096.15-.166.296-.208.437m5.1.488c-1.102.496-2.243.8-3.213.856-.99.057-1.694-.156-1.974-.6-.145-.225-.172-.493-.082-.795.266-.896 1.53-1.968 3.223-2.73 1.102-.498 2.243-.802 3.213-.857.992-.057 1.693.155 1.976.598.142.227.17.494.081.797a1.96 1.96 0 0 1-.23.487c-.495.777-1.599 1.615-2.993 2.244M17.198 33.463c.011-.092.032-.18.064-.265.023-.062.052-.124.086-.18l.128-.274.065.021c.836-.853 3.077-1.03 5.626-.342 3.078.833 5.46 2.623 5.396 4.035l.089.029-.188.387a.83.83 0 0 1-.027.058l-.006.011-.001.002a1.25 1.25 0 0 1-.187.26h-.002c-.814.879-3.076 1.068-5.652.371-3.136-.85-5.55-2.69-5.39-4.113" fill="#FFA412" mask="url(#d)"/>
            <path d="M23.213 31.424c-3.16-.849-5.853-.383-6.015 1.039-.16 1.423 2.272 3.265 5.432 4.113 3.161.849 5.854.383 6.014-1.039.16-1.423-2.272-3.265-5.431-4.113" fill="#FFB93E" mask="url(#d)"/>
            <path d="M18.725 32.633c-.23.164-.36.367-.384.603-.052.499.379 1.127 1.18 1.72.834.62 1.975 1.146 3.213 1.483 1.544.42 3.021.47 3.916.161.18-.064.34-.14.467-.233.23-.164.36-.366.384-.603.053-.499-.378-1.126-1.18-1.721-.834-.617-1.975-1.143-3.212-1.481-1.543-.42-3.021-.472-3.917-.16-.18.06-.337.14-.467.23m3.96 3.999c-1.259-.344-2.423-.882-3.275-1.513-.872-.647-1.319-1.323-1.258-1.903.03-.296.187-.547.465-.745.823-.588 2.606-.628 4.54-.1 1.26.344 2.423.88 3.276 1.512.872.647 1.319 1.323 1.258 1.904-.03.295-.187.545-.465.744a2.01 2.01 0 0 1-.52.26c-.937.325-2.426.274-4.021-.16" fill="#FFA412" mask="url(#d)"/>
            <path fill="#2B478B" mask="url(#d)" d="M17.191 57 15.3 61h-.974l.755-4zM60.169 57l1.89 4h.975l-.756-4z"/>
            <path d="M82.135 30 77.06 43.845C73.944 52.345 65.83 58 56.75 58H20.188c-7.83 0-14.6-5.442-16.26-13.069L1.91 35.654c4.9.778 10.1 1.206 15.404 1.365C47.976 37.947 82.134 30 82.134 30" fill="#F77D48" mask="url(#d)"/>
            <path d="M26.585 38c-4.21 0-7.995-.138-11.14-.317C6.615 37.18.775 36.246.717 36.236c-.459-.074-.776-.542-.708-1.045.068-.502.494-.849.952-.775.059.01 5.837.932 14.594 1.43 8.074.46 20.406.642 33.298-1.102 12.907-1.746 21.752-3.475 26.901-4.62 5.579-1.24 8.138-2.076 8.164-2.084.443-.148.912.128 1.046.614.133.488-.117 1-.561 1.147-.105.035-2.63.862-8.269 2.117-5.183 1.153-14.088 2.896-27.076 4.653C41.063 37.651 33.285 38 26.585 38" fill="#DB643A" mask="url(#d)"/>
            <path d="m55.393 58-35.244-.01c-7.813 0-14.569-5.598-16.225-13.445L1.91 35c4.89.801 10.078 1.24 15.37 1.403-.218 3.506 18 19.985 38.113 21.597" fill="#DB643A" mask="url(#d)"/>
            <path d="M57.303 23.182s3.128-2.174 8.03-.625c2.34.738 6.091 1.39 7.16 3.52 1.07 2.13-7.663 1.917-7.663 1.917l-2.805-1.87-4.722-2.942z" fill="#8C9DF4" mask="url(#d)"/>
            <path d="M68.871 22.98c-.016.213-5.658-1.31-4.792-1.82.275-.163.937-.8 1.212-1.1a12.93 12.93 0 0 1 1.03-1.06l2.72.12 2.588.104c-2.382 1.946-2.712 3.14-2.758 3.756" fill="#FFB27D" mask="url(#d)"/>
            <path d="M70.674 20.622s-2.008.995-3.82-.243c.454-.913.753-1.379.753-1.379l1.991.156 1.076 1.466z" fill="#ED985F" mask="url(#d)"/>
            <path d="M66.002 19.547s3.083 3.859 5.378 1.897c2.292-1.963 4.235-2.786 2.363-5.332-1.872-2.547-3.136-2.27-4.06-1.808-.925.462-4.425 4.19-3.681 5.243" fill="#FFB27D" mask="url(#d)"/>
            <path d="M76.996 18.602c.066-.01.17.028.348.173 0 0-.06-.21-.238-.38.174-.273.417-.815.099-1.287 0 0 .116.317-.078.6-.043-.922-.744-2.194-3.74-4.493-3.95-3.033-4.818.48-4.59 1.2.23.719 2.114 1.014 2.943 1.89.828.875-.137 2.343.008 2.794.147.454.304.028.875.207.573.18.014.908-.493 1.251-.507.343-.458 1.443-.458 1.443l1.107-.113c1.107-.113 3.926-2.276 4.155-3.073l.062-.212" fill="#2C3A64" mask="url(#d)"/>
            <path d="M67.917 17.095s-.125.333.143.599c.27.267.625.205.625.205s-.31-.61-.768-.804" fill="#FFF" mask="url(#d)"/>
            <path d="M64.316 24.613s-4.849 7.688 1.583 17.315L65.684 44l-2.196-.794S55.757 32.979 63.892 24l.424.613zM66.52 23.26l.334.274-.471.403-1.036.063-.403-.44.653-.56.605.045z" fill="#23569E" mask="url(#d)"/>
            <path d="M66.854 23.263s-1.032-.016-1.796.737c0 0-.315-.978.102-1.352.527-.47 1.377-.656 1.348-.648 0 0-.48.392.346 1.263" fill="#6980E2" mask="url(#d)"/>
            <path d="M71.565 26s4.26 6.737 2.505 9.343C72.314 37.951 60.169 36.7 60.169 36.7l.609-2.231 8.996-.817.032-2.538L71.566 26z" fill="#FFB27D" mask="url(#d)"/>
            <path d="M70.906 24.045c3.68 2.494 7.538 10.461 4.26 11.902-4.244 1.865-14.042.685-14.042.685l.646-2.82s6.973-.43 7.22-2.432c.037-.286-1.554-3.22-1.554-3.22l1.996-2.392s.924-2.097 1.474-1.723" fill="#8C9DF4" mask="url(#d)"/>
            <path d="M60.111 33.036s-1.733-1.2-3.189-1.017c-1.457.183-2.314.59-2.478.904-.106.204 1.36.31 2.35.915.989.606 1.342 1.286 2.736 1.143 0 0 .866-1.142.581-1.945" fill="#FFB27D" mask="url(#d)"/>
            <path d="M60.169 32.88s-.967-.527-1.384-.752c-.417-.226-.64-.12-.469.067.172.187.573.494.573.494l1.128.311.152-.12z" fill="#FFB27D" mask="url(#d)"/>
            <path d="M48.23 27.5zM69.913 23s.598.202.761 1.298c0 0-2.965 1.394-4.775.253 0 0 .49-.59.68-1.43 0 0 2.462.617 3.334-.121" fill="#6980E2" mask="url(#d)"/>
            <path d="M51.627 12.368a.632.632 0 0 1 .067-.114h.001a.505.505 0 0 1 .064-.07l.099-.107.025.02c.5-.263 1.536.016 2.582.748 1.265.886 2.077 2.104 1.843 2.752l.036.029-.14.15-.022.022-.003.005h-.002a.613.613 0 0 1-.121.091h-.001c-.495.278-1.54.001-2.599-.74-1.289-.901-2.107-2.149-1.829-2.786" fill="#FFA412" mask="url(#d)"/>
            <path d="M54.466 11.845c-1.29-.902-2.56-1.115-2.838-.477-.28.637.54 1.885 1.828 2.787 1.289.902 2.56 1.115 2.838.478.279-.638-.54-1.886-1.828-2.788" fill="#FFB93E" mask="url(#d)"/>
            <path d="M51.941 12.117c-.121.035-.205.1-.248.195-.091.2.007.524.269.887.272.378.688.761 1.172 1.082.605.398 1.232.632 1.658.632.087 0 .164-.01.233-.03a.372.372 0 0 0 .249-.195c.09-.2-.008-.524-.27-.888-.272-.377-.688-.76-1.172-1.08-.604-.398-1.23-.632-1.658-.632a.817.817 0 0 0-.233.029m1.146 2.236c-.493-.325-.917-.716-1.195-1.102-.285-.396-.383-.742-.278-.975a.45.45 0 0 1 .304-.243c.434-.126 1.204.115 1.96.614.494.324.918.717 1.197 1.103.285.394.382.74.277.974a.444.444 0 0 1-.303.243.927.927 0 0 1-.26.033c-.446 0-1.078-.237-1.702-.647" fill="#FFA412" mask="url(#d)"/>
            <path d="M54.61 13.557c.03.006.057.004.078-.003a.095.095 0 0 0 .048-.05c.01-.025.013-.059.01-.101a.475.475 0 0 0-.093-.243.918.918 0 0 0-.298-.249l-.03-.387c.12.064.223.138.312.216.089.079.163.16.223.244a1.232 1.232 0 0 1 .22.501l.297.162.016.212-.297-.162a.432.432 0 0 1-.044.185.206.206 0 0 1-.109.101.31.31 0 0 1-.174.01.829.829 0 0 1-.234-.09 1.373 1.373 0 0 1-.254-.18 1.444 1.444 0 0 1-.196-.22 1.733 1.733 0 0 1-.156-.26 6.341 6.341 0 0 1-.14-.3 2.222 2.222 0 0 0-.078-.173.99.99 0 0 0-.079-.127.596.596 0 0 0-.291-.201.164.164 0 0 0-.08-.005.077.077 0 0 0-.05.041.174.174 0 0 0-.013.094c.006.073.04.15.103.226a.919.919 0 0 0 .275.212l.03.386a1.835 1.835 0 0 1-.274-.183 1.512 1.512 0 0 1-.216-.214 1.302 1.302 0 0 1-.156-.238 1.04 1.04 0 0 1-.09-.249l-.326-.176-.016-.214.32.175a.383.383 0 0 1 .045-.184.219.219 0 0 1 .115-.097.326.326 0 0 1 .174-.008.849.849 0 0 1 .23.088 1.358 1.358 0 0 1 .452.4c.055.08.107.167.154.26.046.094.09.194.134.301.025.063.05.118.074.164.025.047.051.088.08.125a.595.595 0 0 0 .304.21M49.707 1.276a.426.426 0 0 1 .052-.085V1.19c.017-.018.034-.037.052-.053l.079-.08.02.015c.402-.196 1.23.012 2.066.562 1.013.664 1.663 1.578 1.475 2.065l.028.02-.112.112a.113.113 0 0 1-.017.017l-.003.004-.001.001a.511.511 0 0 1-.098.068c-.396.208-1.233 0-2.08-.554-1.03-.677-1.685-1.613-1.461-2.091" fill="#FFA412" mask="url(#d)"/>
            <path d="M51.977.634c-1.031-.677-2.048-.837-2.27-.358-.224.478.431 1.413 1.462 2.09 1.031.676 2.048.837 2.27.359.224-.48-.431-1.414-1.462-2.091" fill="#FFB93E" mask="url(#d)"/>
            <path d="M49.94 1.078c-.091.023-.154.067-.186.13-.07.133.004.35.2.592.204.252.517.507.88.72.453.266.923.422 1.243.422a.702.702 0 0 0 .175-.02c.09-.023.153-.067.187-.13.067-.134-.006-.35-.202-.591-.205-.253-.517-.508-.88-.721-.453-.266-.923-.422-1.243-.422a.702.702 0 0 0-.175.02m.86 1.491c-.37-.217-.688-.478-.897-.735-.213-.264-.287-.494-.208-.65.04-.08.117-.133.227-.162.326-.083.903.076 1.472.41.369.216.687.477.896.735.213.263.287.494.208.649-.04.08-.117.134-.228.162a.82.82 0 0 1-.194.022c-.334 0-.809-.157-1.277-.431" fill="#FFA412" mask="url(#d)"/>
            <path d="M52.006 1.778c.02.003.037.002.051-.002a.053.053 0 0 0 .032-.025c.007-.013.01-.029.007-.05a.166.166 0 0 0-.016-.058.249.249 0 0 0-.045-.064.467.467 0 0 0-.08-.064.839.839 0 0 0-.12-.06l-.02-.194c.08.033.15.07.209.109.059.039.108.08.15.121.039.043.071.085.095.128.023.043.04.084.05.123l.198.081.011.107-.2-.082a.17.17 0 0 1-.027.094.132.132 0 0 1-.073.05.273.273 0 0 1-.116.004.907.907 0 0 1-.457-.245 1.051 1.051 0 0 1-.104-.13 2.525 2.525 0 0 1-.092-.15.882.882 0 0 0-.105-.149.31.31 0 0 0-.06-.046.516.516 0 0 0-.134-.055.143.143 0 0 0-.054-.002.05.05 0 0 0-.033.02c-.008.011-.01.026-.008.046.003.037.026.075.069.114a.637.637 0 0 0 .182.106l.02.193a1.304 1.304 0 0 1-.182-.091.998.998 0 0 1-.145-.108.667.667 0 0 1-.104-.118.442.442 0 0 1-.06-.125l-.216-.088-.011-.107.213.087a.163.163 0 0 1 .03-.092.138.138 0 0 1 .077-.048.26.26 0 0 1 .115-.004.65.65 0 0 1 .154.044.853.853 0 0 1 .404.33c.03.047.06.097.09.15.016.031.033.059.05.083a.445.445 0 0 0 .052.063.464.464 0 0 0 .203.105M36.412 30.827c.04-.093.089-.178.147-.256.043-.058.09-.111.143-.159l.215-.24.057.046c1.101-.59 3.378.036 5.681 1.684 2.783 1.99 4.57 4.734 4.054 6.191l.079.064-.31.338c-.014.018-.03.034-.045.05l-.01.009-.002.003a1.294 1.294 0 0 1-.267.203l-.001.002c-1.09.625-3.39.003-5.717-1.663-2.836-2.029-4.638-4.838-4.024-6.272" fill="#FFA412" mask="url(#d)"/>
            <path d="M42.655 31.901c-2.835-2.028-5.63-2.51-6.243-1.075-.613 1.435 1.187 4.242 4.023 6.272 2.835 2.03 5.63 2.51 6.243 1.075.613-1.435-1.189-4.242-4.023-6.272" fill="#FFB93E" mask="url(#d)"/>
            <path d="M38.168 31.31c-.303.094-.513.27-.62.522-.229.535.016 1.397.67 2.366.68 1.008 1.722 2.031 2.933 2.882 1.51 1.062 3.077 1.688 4.145 1.688.215 0 .41-.027.58-.078.305-.095.513-.27.62-.523.229-.534-.015-1.397-.67-2.365-.68-1.008-1.72-2.032-2.933-2.883-1.508-1.06-3.077-1.686-4.144-1.686-.216 0-.412.025-.581.078m2.864 5.964c-1.232-.866-2.293-1.91-2.989-2.94-.712-1.055-.957-1.977-.691-2.599.134-.317.388-.535.756-.648 1.086-.336 3.011.306 4.904 1.637 1.232.867 2.294 1.912 2.988 2.94.713 1.055.96 1.977.694 2.6-.135.315-.39.533-.757.647-.192.059-.41.088-.648.088-1.117 0-2.697-.629-4.257-1.725" fill="#FFA412" mask="url(#d)"/>
            <path d="M43.32 34.335c.061.01.114.008.156-.006a.162.162 0 0 0 .095-.075.245.245 0 0 0 .023-.15.606.606 0 0 0-.051-.175.726.726 0 0 0-.136-.19 1.376 1.376 0 0 0-.238-.192 2.204 2.204 0 0 0-.359-.182l-.06-.58c.24.098.448.206.624.324.177.119.327.241.448.368.122.126.217.253.288.381.07.128.12.25.15.37l.594.241.034.32-.597-.244a.503.503 0 0 1-.087.279.398.398 0 0 1-.219.151.831.831 0 0 1-.345.014 1.968 1.968 0 0 1-.468-.137 2.639 2.639 0 0 1-.51-.268 2.666 2.666 0 0 1-.704-.72 7.423 7.423 0 0 1-.277-.452 3.42 3.42 0 0 0-.16-.257 1.45 1.45 0 0 0-.157-.19 1.024 1.024 0 0 0-.174-.136 1.3 1.3 0 0 0-.203-.102 1.089 1.089 0 0 0-.205-.065.393.393 0 0 0-.159-.005.154.154 0 0 0-.1.06.213.213 0 0 0-.024.14c.012.112.08.224.205.339.126.114.31.22.548.319l.062.579a3.846 3.846 0 0 1-.547-.274 2.991 2.991 0 0 1-.435-.322 2.014 2.014 0 0 1-.312-.356 1.352 1.352 0 0 1-.18-.373l-.65-.265-.033-.32.642.26a.475.475 0 0 1 .09-.274.434.434 0 0 1 .227-.147.873.873 0 0 1 .35-.011c.136.02.288.064.457.133.197.08.368.17.514.27.146.1.276.21.39.33.115.12.218.248.309.388.092.14.183.292.27.453.049.093.1.174.148.245.05.072.102.134.158.188a.957.957 0 0 0 .182.144 1.3 1.3 0 0 0 .426.172M44.03 7.564a.532.532 0 0 1-.07-.211l-.027-.141.031-.01c.094-.566.96-1.282 2.208-1.759 1.507-.577 3.01-.59 3.397-.038l.046-.015.036.2.006.031.001.005v.001a.56.56 0 0 1 0 .152v.001c-.077.569-.95 1.295-2.21 1.778-1.536.587-3.066.59-3.419.006" fill="#FFA412" mask="url(#d)"/>
            <path d="M45.202 5.443c-1.541.587-2.505 1.538-2.151 2.121.353.584 1.89.58 3.432-.007s2.506-1.537 2.152-2.12c-.355-.585-1.89-.582-3.433.006" fill="#FFB93E" mask="url(#d)"/>
            <path d="M44.06 7.112a.538.538 0 0 0 .02.407c.124.244.483.378.985.369.52-.01 1.14-.168 1.744-.446.754-.346 1.374-.837 1.649-1.288.054-.09.096-.18.122-.266a.533.533 0 0 0-.019-.407c-.124-.244-.483-.38-.984-.369-.521.01-1.141.168-1.746.446-.753.345-1.371.835-1.647 1.288-.056.09-.098.18-.123.266m2.785.434c-.615.282-1.247.443-1.78.453-.545.011-.925-.14-1.07-.424a.653.653 0 0 1-.027-.499c.165-.552.882-1.188 1.826-1.622.616-.283 1.248-.444 1.78-.453.546-.011.925.14 1.07.423a.659.659 0 0 1 .027.498 1.286 1.286 0 0 1-.136.3c-.288.472-.913.966-1.69 1.324" fill="#FFA412" mask="url(#d)"/>
            <path d="M47.087 5.685a.202.202 0 0 0 .043-.076.114.114 0 0 0-.006-.073.161.161 0 0 0-.061-.065.34.34 0 0 0-.095-.039.352.352 0 0 0-.125-.004.61.61 0 0 0-.158.046.971.971 0 0 0-.188.105l-.279-.18c.115-.079.225-.14.33-.182.105-.042.205-.068.298-.082a.905.905 0 0 1 .257 0 .77.77 0 0 1 .211.062L47.6 5l.154.1-.286.197c.05.043.084.09.1.141.019.051.02.104.005.16a.464.464 0 0 1-.096.17 1.317 1.317 0 0 1-.47.321 1.192 1.192 0 0 1-.533.078 4.401 4.401 0 0 1-.286-.03 1.274 1.274 0 0 0-.165-.017.575.575 0 0 0-.245.041.612.612 0 0 0-.194.134.21.21 0 0 0-.05.074.1.1 0 0 0-.002.071.131.131 0 0 0 .057.062c.053.034.124.043.213.023a.877.877 0 0 0 .306-.147l.28.18c-.096.066-.191.12-.284.163a1.482 1.482 0 0 1-.274.092.96.96 0 0 1-.254.02.68.68 0 0 1-.221-.048L45.043 7l-.155-.1.307-.212a.32.32 0 0 1-.098-.142.27.27 0 0 1 .001-.162.459.459 0 0 1 .098-.17 1.304 1.304 0 0 1 .468-.32 1.226 1.226 0 0 1 .53-.076c.09.007.186.018.284.034.057.01.11.016.155.017.047.003.091 0 .132-.006a.584.584 0 0 0 .322-.178" fill="#FFA412" mask="url(#d)"/>
        </g>
    </g>
</svg>
