<svg width="156" height="92" xmlns="http://www.w3.org/2000/svg" xmlns:xlink="http://www.w3.org/1999/xlink">
    <defs>
        <path id="a" d="M0 0h156v92H0z"/>
        <path id="c" d="M0 0h12.404v10H0z"/>
    </defs>
    <g fill="none" fill-rule="evenodd">
        <mask id="b" fill="#fff">
            <use xlink:href="#a"/>
        </mask>
        <path d="M181.367 120.404c-5.489 15.783-16.88 32.8-33.128 37.682-24.551 7.382-27.257 28.07-71.41 25.62-6.885-.382-13.256-1.468-19.118-3.15a73.576 73.576 0 0 1-9.008-3.22C22.796 166.13 9.071 141.987 7.666 116.882 5.813 83.863 27.7 68.398 41.936 59.36c14.236-9.038 31.112-44.52 74.528-42.466 6.62.316 13.232 1.339 19.65 3.225 14.65 4.299 29.6 13.598 38.38 27.035a63.323 63.323 0 0 1 1.891 3.094c11.78 20.574 12.467 48.641 4.982 70.157" fill="#F1E4E4" mask="url(#b)" transform="rotate(15 96.907 100.357)"/>
        <g mask="url(#b)">
            <path d="M91.12 70.843s1.718 5.042 3.601 6.385c1.884 1.343 4.783.683 6.254-.093 1.47-.777 2.548-9.135 2.548-9.135l-12.404 2.843z" fill="#F06668"/>
            <path d="M99.706 71.871s1.36 4.016 2.843 4.893c1.484.878 5.684-.877 6.92-2.257 1.237-1.381 2.225-8.533 1.36-10.288-.866-1.757-11.123 7.652-11.123 7.652" fill="#F5A1AC"/>
            <g transform="translate(80.624 72)">
                <mask id="d" fill="#fff">
                    <use xlink:href="#c"/>
                </mask>
                <path d="M0 1.748S1.275 7.26 3.014 8.872c1.739 1.615 4.637 1.212 6.144.538C10.666 8.738 12.404 0 12.404 0L0 1.748z" fill="#F5A1AC" mask="url(#d)"/>
            </g>
            <path d="M69.174 70s.587 5.487 2.102 7.308c1.514 1.822 4.411 1.897 5.973 1.49 1.564-.405 4.329-8.506 4.329-8.506L69.174 70zM115.903 41.35c.138-.936 1.563-.236 1.313.704-.129.486-.495.932-.895 1.263a2.78 2.78 0 0 1-.418-1.967m5.361 4.6c-1.18-.256-2.709-.723-3.837-1.52.3-.232.576-.487.799-.795 1.28-1.765 1.052-3.886-1.254-4.532-2.572-.722-3.093 2.539-2.364 4.187.113.255.252.486.399.712-1.094.314-2.32.22-3.423.277-.385.017-.624.588-.214.772 1.356.613 3.166.672 4.678.133 1.36 1.168 3.247 1.727 5.071 1.815.613.03.743-.919.145-1.049M64.404 32.002s6.675-.238 9.698 3.938c3.023 4.177-3.527 2.865-3.527 2.865l-4.03-1.075-1.386-2.028-.755-3.7z" fill="#F06668"/>
            <path d="M70.128 36.777s-4.61-5.91-5.53-5.775c-.923.134-2.307 9.133-2.077 11.552.231 2.418 7.607-5.777 7.607-5.777" fill="#F38890"/>
            <path d="M68.22 36.37s-2.88-3.448-3.457-3.369c-.577.078-1.442 5.33-1.297 6.739.144 1.41 4.754-3.37 4.754-3.37" fill="#85392E"/>
            <path d="M58.895 61.533c-4.478-11.68 3.779-27.906 26.822-29.426 23.04-1.523 32.915 13.445 28.04 29.3-4.878 15.856-46.207 22.705-54.862.126" fill="#F5A1AC"/>
            <path d="M61.544 57.024s-.205-3.363 2.776-5.626c2.982-2.264 9.562-1.75 11.207 1.336 1.646 3.085-3.34 8.625-6.087 8.248l-7.896-3.958z" fill="#F06668"/>
            <path d="M61.541 56.87c0 4.557 11.45 6.381 11.45 0 0-6.38-11.45-6.606-11.45 0" fill="#F38890"/>
            <path d="M66.312 57.5c0 .828-.64 1.5-1.431 1.5s-1.431-.672-1.431-1.5.64-1.5 1.43-1.5c.792 0 1.432.672 1.432 1.5M71.083 57.5c0 .829-.64 1.5-1.433 1.5-.79 0-1.43-.671-1.43-1.5s.64-1.5 1.43-1.5c.793 0 1.433.671 1.433 1.5" fill="#85392E"/>
            <path d="M81.6 39.695c-.443-1.152 5.808-5.256 8.585-4.63 2.778.624 3.282 9.137 2.525 10.513-.757 1.377-9.09-.627-11.11-5.883" fill="#F38890"/>
            <path d="M93.663 45.58c.76-1.378.253-9.897-2.536-10.523-.285-.064-.613-.068-.962-.042l.202.292s1.487 6.53.957 10.604c1.208.187 2.113.08 2.339-.331" fill="#F06668"/>
            <path d="M88.805 45c.179-.5.303-1.02.358-1.54.197-1.834-.249-3.67-.692-5.46a10.322 10.322 0 0 0-4.985 3.266c1.314 1.794 3.41 3.043 5.319 3.734M76.33 48c-1.908 0-1.908 3 0 3 1.909 0 1.909-3 0-3M65.834 47c-1.907 0-1.907 3 0 3 1.91 0 1.91-3 0-3M92.409 32.582c-.608-.336-1.38-.46-2.154-.506-.775-.098-1.62-.073-2.18-.073-1.223 0-2.604.204-3.47 1.05-.401.39-.014 1.089.59.922a15.564 15.564 0 0 1 4.91-.564c.494.023 1.7.404 2.127.21.43-.197.73-.732.177-1.039" fill="#85392E"/>
            <path d="M94.936 25c0 3.313-2.563 6-5.726 6-3.162 0-5.724-2.687-5.724-6s2.562-6 5.724-6c3.163 0 5.726 2.687 5.726 6" fill="#FCB912"/>
            <path d="M93.982 25c0 2.76-2.136 5-4.772 5-2.635 0-4.77-2.24-4.77-5 0-2.762 2.135-5 4.77-5 2.636 0 4.772 2.238 4.772 5" fill="#F68C1E"/>
            <path d="M93.028 25c0 2.208-1.71 4-3.817 4-2.108 0-3.817-1.792-3.817-4s1.71-4 3.817-4c2.108 0 3.817 1.792 3.817 4" fill="#FCB912"/>
            <path d="M89.63 25.987a19.64 19.64 0 0 0-.058-1.159c.034.01.074.018.106.029.643.214.36.83-.048 1.13m-1.277-2.725c.095-.177.26-.304.447-.397 0 .27.006.542.008.812-.29-.06-.584-.174-.455-.415m2.373 1.062c-.303-.336-.796-.456-1.242-.536-.035-.369-.07-.737-.102-1.104.487-.072.826.233 1.264.365a.307.307 0 0 0 .385-.298c-.038-.88-.944-1.172-1.713-1.116-.005-.131-.014-.263-.016-.392-.005-.324-.493-.324-.493 0l-.003.486c-.705.229-1.552.9-1.472 1.734.073.787.79 1.021 1.486 1.183.015.519.038 1.038.079 1.55a1.338 1.338 0 0 1-.826-.372c-.261-.243-.812-.1-.768.323.1.967.912 1.322 1.734 1.243.02.15.03.304.053.452.036.21.385.21.42 0 .033-.19.05-.381.069-.572.097-.033.195-.064.289-.109 1.017-.492 1.73-1.865.856-2.837" fill="#F68C1E"/>
        </g>
    </g>
</svg>
