<svg width="209" height="136" xmlns="http://www.w3.org/2000/svg" xmlns:xlink="http://www.w3.org/1999/xlink">
    <defs>
        <path id="a" d="M0 0h208v136H0z"/>
        <path id="d" d="M0 0h90.079v57.183H0z"/>
        <path id="f" d="M0 0h90.079v57.183H0z"/>
        <path id="h" d="M0 0h84.346v46.563H0z"/>
        <linearGradient x1="26.06%" y1="74.719%" x2="27.878%" y2="30.139%" id="b">
            <stop stop-color="#FFBF8A" offset="0%"/>
            <stop stop-color="#FFC99C" offset="0%"/>
            <stop stop-color="#FFD06B" offset="100%"/>
        </linearGradient>
        <linearGradient x1="2.617%" y1="34.762%" x2="77.736%" y2="65.238%" id="i">
            <stop stop-color="#F0792B" offset="0%"/>
            <stop stop-color="#FF5F33" offset="100%"/>
        </linearGradient>
    </defs>
    <g fill="none" fill-rule="evenodd">
        <g transform="translate(.5)">
            <mask id="c" fill="#fff">
                <use xlink:href="#a"/>
            </mask>
            <path d="M195.805 60.954c2.78 28.42-24.094 60.565-82.832 66.277-58.738 5.712-97.887-21.338-100.668-49.757-2.78-28.42 12.447-92.792 87.207-60.737 74.759 32.054 93.512 15.798 96.293 44.217" fill-opacity=".3" fill="url(#b)" mask="url(#c)"/>
        </g>
        <g transform="translate(65.421 46)">
            <mask id="e" fill="#fff">
                <use xlink:href="#d"/>
            </mask>
            <path d="m70.25 57.183 19.522-47.049c.891-2.147-.226-3.887-2.495-3.887H83.35c-1.603 0-2.695-.882-2.799-2.259l-.13-1.73C80.317.882 79.222 0 77.62 0H58.955c-1.455 0-3.098.726-4.321 1.91l-1.516 1.466c-1.223 1.184-2.865 1.91-4.317 1.91H25.03c-2.27 0-4.811 1.74-5.677 3.888L0 57.184h70.25z" fill="#FF725E" mask="url(#e)"/>
        </g>
        <g transform="translate(65.421 46)">
            <mask id="g" fill="#fff">
                <use xlink:href="#f"/>
            </mask>
            <path d="m70.25 57.183 19.522-47.049c.891-2.147-.226-3.887-2.495-3.887H83.35c-1.603 0-2.695-.882-2.799-2.259l-.13-1.73C80.317.882 79.222 0 77.62 0H58.955c-1.455 0-3.098.726-4.321 1.91l-1.516 1.466c-1.223 1.184-2.865 1.91-4.317 1.91H25.03c-2.27 0-4.811 1.74-5.677 3.888L0 57.184h70.25z" fill="#4E4E4F" mask="url(#g)"/>
        </g>
        <path d="m139.01 88.174 7.375-28.6c.486-1.882-.744-3.771-2.455-3.771H86.125c-1.143 0-2.147.868-2.461 2.13L72.929 100.98c-.47 1.89.282 3.024 1.995 3.002l58.16.018c1.127-.014 2.113-.872 2.429-2.113l3.497-13.713z" fill="#E0E0E0"/>
        <path d="m135.134 102.366 3.162-45.23a2.773 2.773 0 0 0-2.765-2.967H75.248v48.197h59.886z" fill="#EBEBEB"/>
        <path d="m135.846 103.183-7.145-46.42c-.33-1.513-1.692-2.594-3.267-2.594H64.67c-2.4 0-4.016 2.412-3.067 4.576l13.12 42.482 61.123 1.956z" fill="#FAFAFA"/>
        <g transform="translate(51.5 57.437)">
            <mask id="j" fill="#fff">
                <use xlink:href="#h"/>
            </mask>
            <path d="M84.346 46.543 69.625 3.024C69.01 1.212 67.37 0 65.53 0H2.951C.935 0-.487 2.067.156 4.065L13.85 46.564l70.497-.021z" fill="url(#i)" mask="url(#j)"/>
        </g>
        <g transform="translate(80.142 70.31)" stroke="#FFF" stroke-linecap="round" stroke-width="2.5">
            <ellipse cx="11.027" cy="11" rx="11.027" ry="11"/>
            <path d="m7.751 11.694 2.682 2.574 4.688-5.719"/>
        </g>
    </g>
</svg>
