<svg width="208" height="136" xmlns="http://www.w3.org/2000/svg">
    <defs>
        <linearGradient x1="26.06%" y1="74.719%" x2="27.878%" y2="30.139%" id="a">
            <stop stop-color="#FFBF8A" offset="0%"/>
            <stop stop-color="#FFC99C" offset="0%"/>
            <stop stop-color="#FFD06B" offset="100%"/>
        </linearGradient>
        <linearGradient x1="2.617%" y1="28.337%" x2="77.736%" y2="71.663%" id="b">
            <stop stop-color="#F0792B" offset="0%"/>
            <stop stop-color="#FF5F33" offset="100%"/>
        </linearGradient>
        <linearGradient x1="2.617%" y1="43.785%" x2="96.373%" y2="57.882%" id="c">
            <stop stop-color="#C56222" offset="0%"/>
            <stop stop-color="#FF5F33" offset="100%"/>
        </linearGradient>
        <linearGradient x1="2.617%" y1="41.766%" x2="96.373%" y2="60.444%" id="d">
            <stop stop-color="#C56222" offset="0%"/>
            <stop stop-color="#FF5F33" offset="100%"/>
        </linearGradient>
    </defs>
    <g fill="none" fill-rule="evenodd">
        <path d="M112.973 127.23c-58.738 5.713-97.887-21.337-100.668-49.756-2.78-28.42 12.447-92.792 87.207-60.737 74.759 32.054 93.512 15.798 96.293 44.217 2.78 28.42-24.094 60.565-82.832 66.277z" fill-opacity=".3" fill="url(#a)"/>
        <g fill="#FFF">
            <path d="M68.331 69.184c-4.095-2.652-22.091-13.655-32.52-9.308-1.084.451-1.415 1.837-.644 2.72.69.79 2.118 1.724 4.89 2.715 0 0 8.981 3.807 11.68 3.523 0 0-12.544-1.27-13.141 3.475-.038.3.03.61.193.864.634.982 3.043 3.137 11.835 2.31 0 0-7.384 1.751-6.71 4.966 0 0 .522 3.421 12.788 2.952 0 0 10.932-.238 14.873-6.565 0 0 1.985-2.42-1.104-5.856a10.663 10.663 0 0 0-2.14-1.796M137.649 63.202c3.157-3.83 17.233-20.025 28.65-18.934a1.772 1.772 0 0 1 1.45 2.463c-.428.981-1.526 2.324-3.908 4.132 0 0-7.537 6.437-10.236 6.976 0 0 11.756-5.036 13.777-.58.128.281.157.604.076.902-.315 1.152-1.992 3.986-10.753 5.837 0 0 7.68-.522 8.004 2.823 0 0 .536 3.5-11.482 6.754 0 0-10.654 3.074-16.392-1.915 0 0-2.657-1.763-.712-6.055a10.84 10.84 0 0 1 1.526-2.403"/>
        </g>
        <path fill="#407BFF" d="M65 62.228 69.276 107 144 99.771 139.724 55z"/>
        <path fill="url(#b)" d="M0 26.228 4.276 71 79 63.771 74.724 19z" transform="translate(65 36)"/>
        <path fill="#4E4E4F" d="M65 62.22 104.84 83 140 55z"/>
        <path d="M30.652 1.878 0 26.345l74.725-7.21L39.99.979a8.587 8.587 0 0 0-9.339.9" fill="url(#c)" transform="translate(65 36)"/>
        <path d="M136.949 55.404 103.947 38.15a6.478 6.478 0 0 0-7.048.68L67.775 62.077l69.174-6.674z" fill="#4E4E4F"/>
        <path fill="#FFF" d="m123.149 54.857 10.112 2.71.243 2.534-28.81 22.996L72.05 66.03l-.485-5.064z"/>
        <path fill="#E0E0E0" d="m123.149 54.857 1.909 5.313 8.203-2.604"/>
        <path fill="#F0F0F0" d="m123.149 54.857.98 4.381 9.132-1.672"/>
        <path d="M45.668 42.322 79 63.791 4.275 71l28.65-27.449a10.326 10.326 0 0 1 12.743-1.229" fill="url(#d)" transform="translate(65 36)"/>
    </g>
</svg>
