<svg width="156" height="92" xmlns="http://www.w3.org/2000/svg" xmlns:xlink="http://www.w3.org/1999/xlink">
    <defs>
        <path id="a" d="M0 0h156v92H0z"/>
        <path id="c" d="M0 0h25v12H0z"/>
        <path id="e" d="M0 0h12v11H0z"/>
    </defs>
    <g fill="none" fill-rule="evenodd">
        <g>
            <mask id="b" fill="#fff">
                <use xlink:href="#a"/>
            </mask>
            <path d="M197.079 119.45c-5.925 15.9-18.032 33.108-35.068 38.202-25.741 7.7-28.817 28.488-74.921 26.56-7.189-.3-13.833-1.313-19.937-2.93a77.323 77.323 0 0 1-9.374-3.123c-26.934-10.93-40.985-34.985-42.15-60.154-1.54-33.103 21.514-48.881 36.497-58.12 14.984-9.24 33.043-45.038 78.382-43.5 6.912.238 13.81 1.185 20.493 3 15.255 4.136 30.764 13.286 39.776 26.661a61.136 61.136 0 0 1 1.94 3.08c12.06 20.5 12.44 48.649 4.362 70.324" fill="#E9E5E2" mask="url(#b)" transform="rotate(15 109.055 100.337)"/>
        </g>
        <path d="M90 35v6s-1.039-.286-.999-3c.04-2.714.999-3 .999-3M85.397 42 85 41.815l1.625-4.903c.184-.554.627-.912 1.128-.912H89v.506h-1.247c-.324 0-.612.232-.73.591L85.396 42z" fill="#202C36"/>
        <path d="M79.2 41s-1.242.886-1.199 2.985C78.045 46.085 80 47 80 47l-.8-6z" fill="#F3D382"/>
        <path d="M79 39s8-.089 8 3.473-8 2.316-8 2.316V39z" fill="#E7E4E1"/>
        <path d="M128 75c0 5.523-4.477 10-10 10s-10-4.477-10-10 4.477-10 10-10 10 4.477 10 10" fill="#202C36"/>
        <path d="M125 74a7 7 0 1 1-14 0 7 7 0 0 1 14 0" fill="#CCCCCA"/>
        <path d="M120 75a2 2 0 1 1-4 0 2 2 0 0 1 4 0" fill="#FFF"/>
        <path d="M124 60s4.363.573 2.566 4L124 60z" fill="#666CEE"/>
        <path fill="#CCCCCA" d="M80.995 54 74 64.122 78.34 69 82 66.111z"/>
        <path d="M127.003 63.583c-3.959-2.74-3.881-5.71-3.881-5.71h-21.5l-2.407 1.295s6.132.533 6.676 7.232c.542 6.7-7.055 6.963-7.055 6.963s-9.603.811-12.59-2.642c-2.988-3.453-2.988-14.127.106-18.209 3.094-4.081 3.308-4.604 3.308-5.723 0-1.119-3.624-.752-3.948-.65-2.784.882-4.74 3.91-6.009 6.757-2.156 4.84-2.323 10.36-.167 15.2a17.856 17.856 0 0 0 1.828 3.182C83.97 74.892 88.237 77 92.75 77h18.029l2.406-9.61h15.755c.462-2.32-1.938-3.807-1.938-3.807" fill="#CDCDCD"/>
        <path d="M102.774 57.338c-.402 0-.787.157-1.076.444-.683.676-2.08 1.795-3.104.862-1.405-1.281-.148-3.43 1.998-3.242 2.145.189 9.174.227 11.763-1.205 2.59-1.433 3.588-1.508 4.402-.604.813.905-.481 3.42-2.886 3.745h-11.097zM131 75s-1.255-7.598-10.246-10.851c-8.991-3.253-12.413 1.346-12.894 2.212-.797 1.434-1.87 5.762 1.121 8.639H131z" fill="#666CEE"/>
        <path d="M77 75c0 5.523-4.477 10-10 10s-10-4.477-10-10 4.477-10 10-10 10 4.477 10 10" fill="#202C36"/>
        <path d="M75 74a7 7 0 1 1-14 0 7 7 0 0 1 14 0" fill="#CCCCCA"/>
        <path d="M69 75a2 2 0 1 1-4 0 2 2 0 0 1 4 0" fill="#FFF"/>
        <g transform="translate(54 63)">
            <mask id="d" fill="#fff">
                <use xlink:href="#c"/>
            </mask>
            <path d="M12.5 0C5.597 0 0 5.373 0 12h25c0-6.627-5.597-12-12.5-12" fill="#666CEE" mask="url(#d)"/>
        </g>
        <path fill="#E6BDA0" d="M102.454 25 105 31.336 101.243 33 99 27.734z"/>
        <path d="m95.478 22.035-.424 4.343c-.375 1.812 1.257 4.03 3.08 3.557l2.866-.86-1.466-7.514c-.192-.286-3.358-1.331-4.056.474M95 25l-.921 1.233c-.125.166-.1.38.061.52l.49.247.37-2z" fill="#E6BDA0"/>
        <path d="M100.493 26.795s-.742 2.324 2.564 2.2l1.302-2.104c.665-1.074.838-2.38.4-3.555-.354-.951-1.07-1.991-2.49-2.742-3.363-1.78-7.055.865-7.269 2.34l3.36-.037 2.133 3.898z" fill="#1F2326"/>
        <path d="M98.164 22s-.977 2.43 1.836 3l-1.836-3zM95.002 24.545a.5.5 0 1 0 .997-.09.5.5 0 0 0-.997.09" fill="#1F2326"/>
        <path d="M96.735 24.993a.238.238 0 0 1-.065.007l-1.355-.072c-.179-.006-.319-.219-.315-.476.004-.255.152-.457.33-.452l1.356.072c.178.006.319.219.314.475-.003.224-.117.407-.265.446M98.178 23 98 24.816l2 .184-.427-1.733z" fill="#1F2326"/>
        <path d="M100.058 25.662a1.001 1.001 0 0 0 1.884.676 1.002 1.002 0 0 0-1.884-.676" fill="#966150"/>
        <path d="M98 30.513s1.673-.704 2-1.513c0 0-.188 1.17-1.65 2l-.35-.487z" fill="#CF9580"/>
        <path d="M94.09 28.488s2.747-.178 3.524.678L98.423 25l.717.666-.162 1.1s1.585 2.976.807 4.03c-.778 1.055-2.94 1.405-4.057 1.096-.67-.186-2.1-1.176-1.638-3.404" fill="#1F2326"/>
        <g transform="translate(94 18)">
            <mask id="f" fill="#fff">
                <use xlink:href="#e"/>
            </mask>
            <path d="m0 4.646 5.356.16V11s7.677.173 6.526-6.73c0 0-.557-4.422-6.415-4.266 0 0-5.02.078-5.467 4.642" fill="#666CEE" mask="url(#f)"/>
        </g>
        <path d="M101 27.5a.5.5 0 1 1-1 0 .5.5 0 0 1 1 0" fill="#4F59D5"/>
        <path d="M113.064 47s4.234 7.1-5.306 8l-15.386-.01c-1.54-.005-2.526-1.953-2.352-3.446.14-1.208 1.143-2.147 2.385-2.233L113.064 47z" fill="#202C36"/>
        <path fill="#E6BDA0" d="M96.332 63.314 97 69l-2.415-.27L93 63z"/>
        <path d="m94.6 70-1.879 1.113-1.447.243c-.665.112-1.17.613-1.241 1.232l-.033.289L98 73l-.165-2.943L94.6 70z" fill="#1F2326"/>
        <path fill="#000" d="M97.989 74 90 73.837l.011-.837 7.989.163z"/>
        <path fill="#202C36" d="M95.748 51 98 67l-5.515-.201L90 52.664z"/>
        <path d="M99.388 32.885c.071-.298.2-.58.383-.833.536-.745 2.177-2.158 3.462-2.046 2.464.214 3.997 2.506 6.075 5.9 2.077 3.393 6.244 6.54 4.091 10.5l-9.83.594s-3.768-.161-4.014-4.202c-.286-4.721-.993-6.477-.167-9.913" fill="#F3D382"/>
        <path fill="#F3D382" d="m111.766 45 .234.878L103.19 47l-.19-1.362z"/>
        <path stroke="#E9B15E" stroke-width=".75" d="m112 45-9 1"/>
        <path d="m88.765 42.288-2.596-.273a2.664 2.664 0 0 0-1.439.247l-1.203.585c-.412.137-.625.53-.483.89l.152.782c.173.435.773.617 1.223.369l1.323-.668s1.637.721 3.258-.438l-.235-1.494z" fill="#E6BDA0"/>
        <path d="m101.622 31.938-3.466 10.587c-.405 1.148 0 2.447.965 3.093 1.196.8 2.768.296 3.371-1.08l4.239-10.229c.664-1.519.055-3.334-1.354-4.034-1.46-.725-3.18.037-3.755 1.663" fill="#F3D382"/>
        <path d="M98.678 41.429 90.35 41c-.415-.021-.783.315-.867.794l-.465 2.619c-.1.567.23 1.117.717 1.194l8.672 1.379c1.313.15 2.476-.995 2.585-2.543.112-1.603-.948-2.985-2.314-3.015" fill="#F3D382"/>
        <path fill="#F3D382" d="M90 42.062 88.476 42 88 43.81l1.525.19z"/>
        <path stroke="#D1B48C" stroke-width=".682" d="m90 42-1 2"/>
        <path d="M104.39 32s2.307.662 1.398 3.753L103 42" stroke="#E9B15E" stroke-width=".75"/>
        <path d="m87.271 43.178.43.356a.836.836 0 0 1 .062 1.224.8.8 0 0 1-1.152-.006l-.388-.402a.804.804 0 0 1 .015-1.127.769.769 0 0 1 1.033-.045" fill="#88A6F6"/>
    </g>
</svg>
