<svg width="300" height="213" xmlns="http://www.w3.org/2000/svg" xmlns:xlink="http://www.w3.org/1999/xlink">
    <defs>
        <linearGradient x1="0%" y1="44.02%" x2="100%" y2="59.808%" id="d">
            <stop stop-color="#F0792B" offset="0%"/>
            <stop stop-color="#FF5F33" offset="100%"/>
        </linearGradient>
        <linearGradient x1="0%" y1="43.137%" x2="100%" y2="61.257%" id="e">
            <stop stop-color="#F0792B" offset="0%"/>
            <stop stop-color="#FF5F33" offset="100%"/>
        </linearGradient>
        <filter x="-8.5%" y="-10.6%" width="117.1%" height="121.1%" filterUnits="objectBoundingBox" id="a">
            <feOffset dy="2" in="SourceAlpha" result="shadowOffsetOuter1"/>
            <feGaussianBlur stdDeviation="3.5" in="shadowOffsetOuter1" result="shadowBlurOuter1"/>
            <feColorMatrix values="0 0 0 0 0 0 0 0 0 0 0 0 0 0 0 0 0 0 0.08 0" in="shadowBlurOuter1" result="shadowMatrixOuter1"/>
            <feMerge>
                <feMergeNode in="shadowMatrixOuter1"/>
                <feMergeNode in="SourceGraphic"/>
            </feMerge>
        </filter>
        <path id="b" d="M0 165.772h204.79V0H0z"/>
    </defs>
    <g fill="none" fill-rule="evenodd">
        <path fill="#F7F7F7" d="M0 162.118h18V110.08H0z"/>
        <path fill="#EEE" d="M31 162.118h18V97.071H31z"/>
        <path fill="#E5E5E5" d="M64 162.118h18V84.061H64z"/>
        <path fill="#F6F6F6" d="M95 162.118h18V57.041H95z"/>
        <path fill="#EEE" d="M127 162.118h18V84.061h-18z"/>
        <path fill="#E5E5E5" d="M159 162.118h18V96.07h-18z"/>
        <path fill="#F6F6F6" d="M190 162.118h18V110.08h-18z"/>
        <path fill="#E5E5E5" d="M222 162.118h18V97.071h-18z"/>
        <path fill="#F6F6F6" d="M254 162.118h18V71.052h-18z"/>
        <path fill="#E5E5E5" d="M286 162.118h14V57.041h-14z"/>
        <g filter="url(#a)" transform="translate(68 47.034)">
            <path d="M117.16 35.988c2.852-4.282 8.834-5.037 12.66-1.6a8.452 8.452 0 0 1 1.28 11.122l-7.82 11.202-13.285-9.97 7.164-10.754zM64.962 56.172l3.42-4.325a2.84 2.84 0 0 1 3.313-.681l9.401 4.374 25.165-3.33 3.73-5.469 11.818 8.87-4.775 6.376a7.19 7.19 0 0 1-5.96 2.877l-.069.01-28.739-1.172V63.7c-3.22 1.169-5.66-.02-5.66-.02l-5-1.762-1.155 1.11c-.75.72-1.9.82-2.764.242l-1.59-1.065a3.18 3.18 0 0 1-1.158-1.4l-.536-1.255a3.19 3.19 0 0 1 .56-3.379M92.786 132.376l-.02 1.882-31.44-.346.021-1.88 1.188.012c0-.009-.002-4.831 5.958-5.64 5.966-.81 7.335-.41 8.697-2.18.774-1.008.981-2.372 1.024-3.289.027-.554.481-.99 1.036-.985l.153.002-.019-4.702H76.19v-6.413h.003V81.802h.01c.087-4.993 4.153-9.017 9.164-9.017h43.415s6.442 18.361-11.143 18.361H94.155v17.691h1.806v6.413h-4.855l-.184 4.84c.527.048.938.49.931 1.03l-.126 11.243" fill="#0B1D21"/>
            <path d="M67.708 36.563v8.135s-1.724-.266-1.724-4.52c0-4.253 1.724-3.615 1.724-3.615" fill="#3D4D4F"/>
            <path d="m61.58 52.24 1.414-9.934a1.237 1.237 0 0 1 1.12-1.062l2.765-.248-.068-.764-2.766.248a2 2 0 0 0-1.81 1.72l-1.415 9.932.76.108z" fill="#3D4D4F"/>
            <path d="m60.598 55.77-.738-.206 4.659-16.704a3.707 3.707 0 0 1 3.558-2.703h2.565v.767h-2.565c-1.31 0-2.47.88-2.82 2.142l-4.66 16.705z" fill="#3D4D4F"/>
            <path d="M69.63 36.14c0 3.331.904 6.032 2.021 6.032s2.022-2.7 2.022-6.032c0-3.331-.905-6.032-2.022-6.032-1.117 0-2.022 2.7-2.022 6.032" fill="#3D4D4F"/>
            <path d="M51.143 58.707a6.405 6.405 0 0 0 6.402 6.407 6.405 6.405 0 0 0 6.403-6.407 6.405 6.405 0 0 0-6.403-6.406 6.405 6.405 0 0 0-6.402 6.406" fill="#FFC003"/>
            <path d="M60.298 66.831h1.535a4.584 4.584 0 0 0 4.58-4.585V55.17a4.583 4.583 0 0 0-4.58-4.585h-1.535a4.584 4.584 0 0 0-4.581 4.585v7.076a4.584 4.584 0 0 0 4.581 4.585" fill="#FF8100"/>
            <mask id="c" fill="#fff">
                <use xlink:href="#b"/>
            </mask>
            <path fill="#1A2E35" mask="url(#c)" d="M187.706 130.158h9.136v-6.27h-9.136zM58.633 140.398c0 14.014-11.352 25.373-25.357 25.373-14.003 0-25.356-11.359-25.356-25.373 0-14.014 11.353-25.375 25.356-25.375 14.005 0 25.356 11.36 25.356 25.375"/>
            <path d="M49.405 140.398c0 8.913-7.22 16.14-16.129 16.14-8.908 0-16.128-7.227-16.128-16.14 0-8.915 7.22-16.14 16.128-16.14 8.908 0 16.13 7.225 16.13 16.14" fill="#3D4D4F" mask="url(#c)"/>
            <path d="M37.975 140.398a4.7 4.7 0 1 1-9.396 0 4.7 4.7 0 1 1 9.396 0" fill="#FFF" mask="url(#c)"/>
            <path d="M33.207 105.18C14.867 105.18 0 120.058 0 138.41h66.414c0-18.352-14.867-33.23-33.207-33.23" fill="url(#d)" mask="url(#c)"/>
            <path fill="#F4BB54" mask="url(#c)" d="M162.15 63.578h33.325v-9.36H162.15z"/>
            <path fill="#938179" mask="url(#c)" d="M158.758 92.902h40.107V63.449h-40.107z"/>
            <path fill="#1A2E35" mask="url(#c)" d="m182.257 93.763-1.413-39.535.567-.02 1.412 39.534zM176.945 93.763l-.566-.02 1.412-39.535.567.02z"/>
            <path fill="#1A2E35" mask="url(#c)" d="M153.922 94.607h50.868v-1.71h-50.868z"/>
            <path fill="#1A2E35" mask="url(#c)" d="m176.876 102.744-1.01-1.38 11.322-8.302 1.01 1.38z"/>
            <path d="m63.948 53.142 13.004 7.486-11.514 25.997s-7.892 14.033-2.765 26.32c5.787 13.867 12.447 21.102 12.447 21.102h25.862c5.276 0 10.198-2.631 13.15-7.007 3.08-4.566 5.754-10.855 3.586-17.3-3.87-11.511-15.215-16.79-15.215-16.79h62.4s10.895 3.224 27.008 30.938h-7.194L137.99 138.41H75.702s-7.18 2.425-17.07-13.474L42.62 109.74a35.264 35.264 0 0 1 6.787-20.8l14.54-19.903V53.142z" fill="#FF8100" mask="url(#c)"/>
            <path d="M112.24 94.14c-1.303 0-2.55.5-3.485 1.41-2.214 2.154-6.74 5.714-10.057 2.743-4.554-4.078-.48-10.914 6.472-10.313 6.95.598 29.723.72 38.112-3.839 8.39-4.557 11.626-4.797 14.263-1.918 2.636 2.878-1.558 10.882-9.348 11.917H112.24z" fill="#020202" mask="url(#c)"/>
            <path d="M184.32 140.398c0 14.014-11.352 25.373-25.356 25.373-14.004 0-25.356-11.359-25.356-25.373 0-14.014 11.352-25.375 25.356-25.375 14.004 0 25.356 11.36 25.356 25.375" fill="#1A2E35" mask="url(#c)"/>
            <path d="M175.093 140.398c0 8.913-7.221 16.14-16.13 16.14-8.907 0-16.128-7.227-16.128-16.14 0-8.915 7.22-16.14 16.129-16.14 8.908 0 16.129 7.225 16.129 16.14" fill="#3D4D4F" mask="url(#c)"/>
            <path d="M163.662 140.398a4.7 4.7 0 0 1-4.698 4.701 4.7 4.7 0 0 1-4.699-4.701 4.7 4.7 0 0 1 4.7-4.702 4.7 4.7 0 0 1 4.697 4.702" fill="#FFF" mask="url(#c)"/>
            <path d="M193.757 135.206s-3.704-24.045-30.246-34.34c-26.542-10.297-36.644 4.258-38.064 7-2.352 4.539-5.519 18.234 3.31 27.34h65z" fill="url(#e)" mask="url(#c)"/>
            <path d="M174.23 127.748h-29.463a.974.974 0 1 1 0-1.95h29.463a.974.974 0 1 1 0 1.95M170.94 123.058h-23.582a.976.976 0 0 1 0-1.95h23.583a.975.975 0 0 1 0 1.95M167.637 118.462h-16.891a.975.975 0 0 1 0-1.95h16.89a.974.974 0 1 1 0 1.95" fill="#EA5B2D" mask="url(#c)"/>
            <path fill="#FFBD9A" mask="url(#c)" d="m115.459 17.362 5.973 15.676 10.533-2.555-7.407-14.556z"/>
            <path d="M122.986 15.422s.605 7.3-3.297 13.04l-1.922-5.12 5.219-7.92z" fill="#D1734A" mask="url(#c)"/>
            <path d="m110.553 9.15-1.035 10.443a4.69 4.69 0 0 0 4.203 5.132c3.704.368 7.2-1.845 8.63-5.284l3.366-7.939a2.892 2.892 0 0 0-2.382-3.99L115.02 5.77c-1.587-.157-4.31 1.791-4.467 3.38" fill="#FFBD9A" mask="url(#c)"/>
            <path d="m110.254 13.818-2.137 2.601c-.258.438.2.956.818.923l3.144.584-1.825-4.108z" fill="#FFBD9A" mask="url(#c)"/>
            <path d="M124.464 5.646c.711.123 6.461-.073 6.513 6.335.033 4.075-3.368 8.625-3.397 8.584 0 0-2.102-.132-2.687-3.124-.149-.766-.029-1.305.231-1.686l-4.472-5.769s1.253-.937-.694-2.083c-3.477-2.046-7.46-1.24-7.46-1.24 1.102-3.705 11.255-1.14 11.966-1.017" fill="#263238" mask="url(#c)"/>
            <path d="M128.398 14.582c.968 2.552-1.298 4.757-3.634 4.018a2.902 2.902 0 0 1-2.005-2.449c-.265-2.436 2.34-4.228 4.65-2.777.449.283.8.713.989 1.208" fill="#FFBD9A" mask="url(#c)"/>
            <path d="M125.187 14.532c.278-.06.569-.016.838.105.27.12.517.355.64.657.114.303.106.63.015.907-.045.138-.116.264-.182.386-.087.112-.171.222-.274.318 0-.145.02-.276.038-.404l.025-.372c0-.24-.02-.456-.097-.643-.14-.381-.532-.661-1.003-.954" fill="#263238" mask="url(#c)"/>
            <path d="m111.397 6.407-6.5-.806c-.177-.02-.57.068-.662.466-.133.582.276.77.436.803l5.744 1.213a.798.798 0 0 0 .945-.617c.084-.427.483-.664.045-.751-.024-.004.016-.306-.008-.308" fill="#1A2E35" mask="url(#c)"/>
            <path d="M131.505 12.548 110.044 8.02s2.152-9.993 13.06-7.67c10.822 2.303 8.4 12.197 8.4 12.197" fill="#F0792B" mask="url(#c)"/>
            <path d="M111.373 13.954a.622.622 0 1 0 1.243-.074.622.622 0 0 0-1.243.074M111.517 10.968c-.167.542.696.735 1.713.98 1.017.244 1.872.375 1.971-.094.087-.415-.696-.736-1.713-.98-1.017-.245-1.829-.364-1.97.094M113.429 18.655c-.054.287-.281.525-.532.673-.254.156-.547.23-.832.253-.287.02-.57-.01-.84-.082a2.318 2.318 0 0 1-.755-.354c.285-.039.547-.039.806-.042.257-.011.507-.006.749-.032.245-.011.48-.05.713-.106a2.12 2.12 0 0 0 .69-.31" fill="#263238" mask="url(#c)"/>
            <path d="M126.455 28.521s5.312-1.525 8.502 3.929c3.773 6.452 2.867 16.702-.221 24.988l-1.321 15.406h-25.383s-1.141-16.984 3.75-27.846c6.454-14.327 14.673-16.477 14.673-16.477" fill="#2B5B63" mask="url(#c)"/>
            <path d="m111.28 49.816-4.675 6.854a7.215 7.215 0 0 0 1.338 9.606 7.202 7.202 0 0 0 10.38-1.215l4.775-6.376-11.817-8.869z" fill="#FFBD9A" mask="url(#c)"/>
            <path d="m111.364 49.816 7.164-10.754c2.852-4.281 8.835-5.037 12.661-1.599a8.452 8.452 0 0 1 1.279 11.121l-7.821 11.201-13.283-9.969z" fill="#2B5B63" mask="url(#c)"/>
            <path fill="#123D48" mask="url(#c)" d="m111.488 49.956-.415-.28 6.486-9.623.414.279zM124.713 60.14l-1.76-1.25.29-.408 1.339.95L133.4 46.12l.417.277z"/>
            <path d="m111.48 54.763-29.095 3.852 1.171 8.162 28.738 1.172c4.817-.682 8.215-4.464 6.634-9.067-1.22-3.554-3.739-4.7-7.448-4.119" fill="#FFBD9A" mask="url(#c)"/>
            <path d="m84.55 59.621-11.564-5.38a2.842 2.842 0 0 0-3.316.68l-3.419 4.326a3.188 3.188 0 0 0-.558 3.378l.535 1.256a3.195 3.195 0 0 0 1.159 1.4l1.59 1.065a2.214 2.214 0 0 0 2.763-.243l1.154-1.11 5 1.761s3.741 1.827 8.072-1.262l-1.416-5.87z" fill="#FFBD9A" mask="url(#c)"/>
            <path d="m75.938 61.41 2.472 1.502a3.294 3.294 0 0 1 .091 4.886 3.286 3.286 0 0 1-4.674-.176l-2.296-1.683a3.167 3.167 0 0 1 .212-4.49 3.162 3.162 0 0 1 4.195-.04" fill="#1A2E35" mask="url(#c)"/>
            <path fill="#FFBD9A" mask="url(#c)" d="m95.94 109.996-11.94.937.046 11.304 11.422.162z"/>
            <path d="m96.488 121.12-.127 11.243-29.193-.318s-.008-4.831 5.958-5.641c5.966-.81 7.335-.41 8.697-2.18.775-1.008.982-2.372 1.025-3.289.026-.554.48-.99 1.035-.985l11.59.131c.567.006 1.02.472 1.015 1.038" fill="#1A2E35" mask="url(#c)"/>
            <path fill="#1A2E35" mask="url(#c)" d="m97.399 134.258-31.44-.346.022-1.881 31.439.345z"/>
            <path fill="#FFF" mask="url(#c)" d="m96.36 132.516-29.193-.32.003-.303 29.192.319z"/>
            <path fill="#142E36" mask="url(#c)" d="M80.827 115.25h17.961V81.801H80.827z"/>
            <path d="M133.415 72.785s6.443 18.361-11.143 18.361H90c-5.066 0-9.173-4.11-9.173-9.18 0-5.071 4.107-9.181 9.173-9.181h43.415zM98.788 91.522h-5.845" fill="#142E36" mask="url(#c)"/>
        </g>
    </g>
</svg>
